<?xml version="1.0" encoding="UTF-8"?>
<svg version="1.1" xmlns="http://www.w3.org/2000/svg" width="1200" height="1200">
<path d="M0 0 C2.64426498 -0.0011537 5.2885271 -0.00270223 7.93279129 -0.00472724 C13.65833746 -0.00831894 19.38387418 -0.00824175 25.10942078 -0.00568008 C33.62432565 -0.0018809 42.13922263 -0.00384004 50.65412746 -0.00688839 C65.86867334 -0.01214282 81.08321501 -0.01170211 96.29776128 -0.00880948 C109.6182372 -0.00628956 122.93871159 -0.00563924 136.2591877 -0.00683212 C137.58682692 -0.0069467 137.58682692 -0.0069467 138.94128714 -0.00706359 C142.53466273 -0.00737496 146.12803832 -0.00769336 149.7214139 -0.00802336 C183.41005741 -0.01108019 217.09869825 -0.00831276 250.78734135 -0.00292646 C280.67097822 0.00181519 310.55461084 0.00139737 340.43824768 -0.00338745 C374.05342091 -0.00875183 407.66859178 -0.01085967 441.28376538 -0.00777519 C444.87321889 -0.0074545 448.46267241 -0.00714166 452.05212593 -0.00683212 C453.37773459 -0.00671351 453.37773459 -0.00671351 454.73012322 -0.00659249 C468.03097388 -0.00545867 481.33182283 -0.00677855 494.63267326 -0.00931168 C509.77495808 -0.01218122 524.91723805 -0.01143449 540.05952226 -0.00603093 C548.51692485 -0.0031118 556.97431691 -0.00287788 565.4317192 -0.00667711 C571.10177025 -0.0089415 576.77181297 -0.00748481 582.4418628 -0.00317234 C585.65871891 -0.00082405 588.87555063 -0.00048365 592.09240668 -0.00357832 C676.94472535 -0.07887007 757.35622326 14.74184314 820.75782776 75.12698364 C821.35675842 75.69723267 821.95568909 76.26748169 822.57276917 76.85501099 C830.93018074 84.87165585 838.61775846 93.10184971 845.4990387 102.42385864 C846.72852172 104.08733296 847.97998988 105.73225916 849.23439026 107.37698364 C874.98022407 141.68434102 889.73969533 182.99242325 896.50782776 225.00198364 C896.70666565 226.21700562 896.90550354 227.43202759 897.11036682 228.68386841 C900.47275954 250.81769803 901.05321421 273.05920361 901.01179504 295.40727234 C901.01299812 298.16313936 901.01720506 300.91900011 901.02124953 303.67486423 C901.02840009 309.61634429 901.02829933 315.55778786 901.02315521 321.49926949 C901.01552635 330.33506129 901.01949051 339.17082285 901.02557183 348.00661451 C901.0360559 363.79568883 901.03520957 379.58474687 901.029414 395.3738227 C901.02436757 409.19112603 901.0230766 423.00842341 901.02545929 436.82572746 C901.02568844 438.20464439 901.02568844 438.20464439 901.02592223 439.61141823 C901.02654498 443.34377689 901.02718179 447.07613555 901.02784176 450.8084942 C901.03394901 485.76482114 901.02842983 520.72113776 901.01764796 555.67746311 C901.00815716 586.68367274 901.00900792 617.68986595 901.01856995 648.69607544 C901.02929609 683.59312582 901.03351654 718.49016709 901.02734542 753.38721889 C901.02670406 757.11216446 901.02607837 760.83711002 901.02545929 764.56205559 C901.02530113 765.47912237 901.02514298 766.39618916 901.02498003 767.34104585 C901.02271213 781.14494924 901.02535244 794.94884602 901.0304184 808.75274849 C901.0361541 824.45918702 901.03467073 840.16560686 901.02385691 855.87204308 C901.01801467 864.64520578 901.01755676 873.41832791 901.02514926 882.1914895 C901.02967278 888.07042421 901.0267739 893.94932676 901.01813972 899.82825676 C901.01343627 903.16511176 901.01277298 906.50182222 901.01895168 909.83868415 C901.05450981 930.6554223 900.35478529 951.47989243 897.00782776 972.06448364 C896.83791321 973.12473755 896.66799866 974.18499146 896.49293518 975.27737427 C887.99827625 1026.32805581 867.738221 1075.26314021 831.75782776 1113.12698364 C830.56306002 1114.49567327 829.37502504 1115.8702834 828.19532776 1117.25198364 C821.06513749 1125.4126443 813.23604894 1132.39981991 804.75782776 1139.12698364 C803.70863064 1139.98902489 802.6604834 1140.85234528 801.61329651 1141.71682739 C742.25975811 1190.22051086 665.71744833 1200.52814268 591.46847534 1200.38095093 C588.86890281 1200.38326342 586.26933095 1200.38644517 583.66976041 1200.39040542 C578.08189213 1200.39753323 572.4940627 1200.39746981 566.90619278 1200.3923111 C558.59574524 1200.38466026 550.2853297 1200.38865755 541.97488229 1200.39472771 C527.1201177 1200.40519619 512.26537044 1200.40437157 497.41060424 1200.39856989 C484.4069658 1200.39351684 471.40333367 1200.39223551 458.39969444 1200.39461517 C457.10030907 1200.39484433 457.10030907 1200.39484433 455.77467348 1200.39507811 C452.25722953 1200.39570091 448.73978557 1200.39633772 445.22234162 1200.39699764 C412.29422595 1200.40310153 379.36612123 1200.39759168 346.43800725 1200.38680385 C317.26376511 1200.37731844 288.08954045 1200.37816 258.91529846 1200.38772583 C226.05072185 1200.39846595 193.1861549 1200.40266426 160.32157677 1200.3965013 C156.80939782 1200.39585999 153.29721886 1200.3952343 149.7850399 1200.39461517 C148.48809492 1200.39437794 148.48809492 1200.39437794 147.16494903 1200.39413592 C134.18158111 1200.39187325 121.19822023 1200.39449854 108.21485329 1200.39957428 C93.42923195 1200.40532619 78.64363048 1200.4037929 63.85801158 1200.39301279 C56.3295906 1200.38770299 48.80120197 1200.38542267 41.27278137 1200.3923111 C-54.05222415 1200.47380128 -145.7067996 1194.21133414 -218.24217224 1125.12698364 C-218.84110291 1124.55673462 -219.44003357 1123.9864856 -220.05711365 1123.3989563 C-228.9492896 1114.86935165 -236.94324959 1106.05127693 -244.24217224 1096.12698364 C-244.66836853 1095.55625122 -245.09456482 1094.9855188 -245.53367615 1094.39749146 C-255.66554664 1080.80399439 -263.98582943 1066.43552621 -271.24217224 1051.12698364 C-271.57072205 1050.44329712 -271.89927185 1049.7596106 -272.23777771 1049.0552063 C-284.55226117 1023.25429001 -291.4573776 995.91575417 -295.49217224 967.68948364 C-295.64331482 966.64574585 -295.7944574 965.60200806 -295.95018005 964.52664185 C-298.88391784 942.34645837 -299.53921702 920.02686693 -299.4894104 897.68263245 C-299.49100362 895.04195753 -299.49339038 892.40129383 -299.49672681 889.76062161 C-299.50234344 884.07697205 -299.50073117 878.39336277 -299.49404144 872.70971489 C-299.48412077 864.25724281 -299.48588235 855.80479953 -299.48979174 847.35232395 C-299.49603349 833.11874625 -299.49293342 818.88518522 -299.48419762 804.65160942 C-299.47555147 790.56022423 -299.4706782 776.46884654 -299.47086525 762.37745857 C-299.4708729 761.49742606 -299.47088054 760.61739354 -299.47088842 759.71069338 C-299.47092933 756.13753435 -299.47099495 752.56437533 -299.47109423 748.99121631 C-299.47199838 715.53671286 -299.46208508 682.08222077 -299.44666457 648.62772125 C-299.4330416 618.96381813 -299.42680344 589.29992307 -299.42747498 559.63601685 C-299.42751539 557.73089762 -299.42755575 555.8257784 -299.42759605 553.92065918 C-299.42761641 552.97876329 -299.42763676 552.03686741 -299.42765772 551.06642923 C-299.42775853 546.32413711 -299.42784911 541.581845 -299.42792797 536.83955288 C-299.42794468 535.90378378 -299.4279614 534.96801469 -299.42797862 534.00388896 C-299.42834453 509.14947935 -299.42379718 484.29507074 -299.41760141 459.44066197 C-299.41738113 458.5555066 -299.41716086 457.67035124 -299.41693392 456.75837299 C-299.41604579 453.19970113 -299.41515735 449.64102927 -299.41424296 446.08235742 C-299.41109476 433.74915932 -299.40957523 421.41596201 -299.40913147 409.08276354 C-299.40853205 393.18272412 -299.40449177 377.28269132 -299.39470001 361.38265472 C-299.38962067 352.99206048 -299.38716359 344.60147594 -299.3886962 336.21088024 C-299.38943879 330.5844738 -299.38646722 324.95807668 -299.38065239 319.33167323 C-299.37744942 316.1407604 -299.3762242 312.9498711 -299.37841298 309.75895684 C-299.40503993 266.06011703 -299.40503993 266.06011703 -296.99217224 245.18948364 C-296.86358826 244.05019409 -296.73500427 242.91090454 -296.6025238 241.73709106 C-290.5372776 190.62723638 -274.36687147 141.85914912 -242.24217224 101.12698364 C-241.49322693 100.16405396 -240.74428162 99.20112427 -239.97264099 98.20901489 C-193.80685116 40.22341245 -126.86089158 10.50026562 -54.22654724 2.1242981 C-50.56798165 1.73036453 -46.91184903 1.3932843 -43.24217224 1.12698364 C-42.16598112 1.04468793 -41.08978999 0.96239222 -39.98098701 0.8776027 C-26.65428399 -0.02928363 -13.35274201 -0.01273529 0 0 Z " fill="#FD2668" transform="translate(299.24217224121094,-0.126983642578125)"/>
<path d="M0 0 C2.64426498 -0.0011537 5.2885271 -0.00270223 7.93279129 -0.00472724 C13.65833746 -0.00831894 19.38387418 -0.00824175 25.10942078 -0.00568008 C33.62432565 -0.0018809 42.13922263 -0.00384004 50.65412746 -0.00688839 C65.86867334 -0.01214282 81.08321501 -0.01170211 96.29776128 -0.00880948 C109.6182372 -0.00628956 122.93871159 -0.00563924 136.2591877 -0.00683212 C137.58682692 -0.0069467 137.58682692 -0.0069467 138.94128714 -0.00706359 C142.53466273 -0.00737496 146.12803832 -0.00769336 149.7214139 -0.00802336 C183.41005741 -0.01108019 217.09869825 -0.00831276 250.78734135 -0.00292646 C280.67097822 0.00181519 310.55461084 0.00139737 340.43824768 -0.00338745 C374.05342091 -0.00875183 407.66859178 -0.01085967 441.28376538 -0.00777519 C444.87321889 -0.0074545 448.46267241 -0.00714166 452.05212593 -0.00683212 C453.37773459 -0.00671351 453.37773459 -0.00671351 454.73012322 -0.00659249 C468.03097388 -0.00545867 481.33182283 -0.00677855 494.63267326 -0.00931168 C509.77495808 -0.01218122 524.91723805 -0.01143449 540.05952226 -0.00603093 C548.51692485 -0.0031118 556.97431691 -0.00287788 565.4317192 -0.00667711 C571.10177025 -0.0089415 576.77181297 -0.00748481 582.4418628 -0.00317234 C585.65871891 -0.00082405 588.87555063 -0.00048365 592.09240668 -0.00357832 C676.94472535 -0.07887007 757.35622326 14.74184314 820.75782776 75.12698364 C821.35675842 75.69723267 821.95568909 76.26748169 822.57276917 76.85501099 C830.93018074 84.87165585 838.61775846 93.10184971 845.4990387 102.42385864 C846.72852172 104.08733296 847.97998988 105.73225916 849.23439026 107.37698364 C874.98022407 141.68434102 889.73969533 182.99242325 896.50782776 225.00198364 C896.70666565 226.21700562 896.90550354 227.43202759 897.11036682 228.68386841 C900.47275954 250.81769803 901.05321421 273.05920361 901.01179504 295.40727234 C901.01299812 298.16313936 901.01720506 300.91900011 901.02124953 303.67486423 C901.02840009 309.61634429 901.02829933 315.55778786 901.02315521 321.49926949 C901.01552635 330.33506129 901.01949051 339.17082285 901.02557183 348.00661451 C901.0360559 363.79568883 901.03520957 379.58474687 901.029414 395.3738227 C901.02436757 409.19112603 901.0230766 423.00842341 901.02545929 436.82572746 C901.02568844 438.20464439 901.02568844 438.20464439 901.02592223 439.61141823 C901.02654498 443.34377689 901.02718179 447.07613555 901.02784176 450.8084942 C901.03394901 485.76482114 901.02842983 520.72113776 901.01764796 555.67746311 C901.00815716 586.68367274 901.00900792 617.68986595 901.01856995 648.69607544 C901.02929609 683.59312582 901.03351654 718.49016709 901.02734542 753.38721889 C901.02670406 757.11216446 901.02607837 760.83711002 901.02545929 764.56205559 C901.02530113 765.47912237 901.02514298 766.39618916 901.02498003 767.34104585 C901.02271213 781.14494924 901.02535244 794.94884602 901.0304184 808.75274849 C901.0361541 824.45918702 901.03467073 840.16560686 901.02385691 855.87204308 C901.01801467 864.64520578 901.01755676 873.41832791 901.02514926 882.1914895 C901.02967278 888.07042421 901.0267739 893.94932676 901.01813972 899.82825676 C901.01343627 903.16511176 901.01277298 906.50182222 901.01895168 909.83868415 C901.05450981 930.6554223 900.35478529 951.47989243 897.00782776 972.06448364 C896.83791321 973.12473755 896.66799866 974.18499146 896.49293518 975.27737427 C887.99827625 1026.32805581 867.738221 1075.26314021 831.75782776 1113.12698364 C830.56306002 1114.49567327 829.37502504 1115.8702834 828.19532776 1117.25198364 C821.06513749 1125.4126443 813.23604894 1132.39981991 804.75782776 1139.12698364 C803.70863064 1139.98902489 802.6604834 1140.85234528 801.61329651 1141.71682739 C742.25975811 1190.22051086 665.71744833 1200.52814268 591.46847534 1200.38095093 C588.86890281 1200.38326342 586.26933095 1200.38644517 583.66976041 1200.39040542 C578.08189213 1200.39753323 572.4940627 1200.39746981 566.90619278 1200.3923111 C558.59574524 1200.38466026 550.2853297 1200.38865755 541.97488229 1200.39472771 C527.1201177 1200.40519619 512.26537044 1200.40437157 497.41060424 1200.39856989 C484.4069658 1200.39351684 471.40333367 1200.39223551 458.39969444 1200.39461517 C457.10030907 1200.39484433 457.10030907 1200.39484433 455.77467348 1200.39507811 C452.25722953 1200.39570091 448.73978557 1200.39633772 445.22234162 1200.39699764 C412.29422595 1200.40310153 379.36612123 1200.39759168 346.43800725 1200.38680385 C317.26376511 1200.37731844 288.08954045 1200.37816 258.91529846 1200.38772583 C226.05072185 1200.39846595 193.1861549 1200.40266426 160.32157677 1200.3965013 C156.80939782 1200.39585999 153.29721886 1200.3952343 149.7850399 1200.39461517 C148.48809492 1200.39437794 148.48809492 1200.39437794 147.16494903 1200.39413592 C134.18158111 1200.39187325 121.19822023 1200.39449854 108.21485329 1200.39957428 C93.42923195 1200.40532619 78.64363048 1200.4037929 63.85801158 1200.39301279 C56.3295906 1200.38770299 48.80120197 1200.38542267 41.27278137 1200.3923111 C-54.05222415 1200.47380128 -145.7067996 1194.21133414 -218.24217224 1125.12698364 C-218.84110291 1124.55673462 -219.44003357 1123.9864856 -220.05711365 1123.3989563 C-228.9492896 1114.86935165 -236.94324959 1106.05127693 -244.24217224 1096.12698364 C-244.66836853 1095.55625122 -245.09456482 1094.9855188 -245.53367615 1094.39749146 C-255.66554664 1080.80399439 -263.98582943 1066.43552621 -271.24217224 1051.12698364 C-271.57072205 1050.44329712 -271.89927185 1049.7596106 -272.23777771 1049.0552063 C-284.55226117 1023.25429001 -291.4573776 995.91575417 -295.49217224 967.68948364 C-295.64331482 966.64574585 -295.7944574 965.60200806 -295.95018005 964.52664185 C-298.88391784 942.34645837 -299.53921702 920.02686693 -299.4894104 897.68263245 C-299.49100362 895.04195753 -299.49339038 892.40129383 -299.49672681 889.76062161 C-299.50234344 884.07697205 -299.50073117 878.39336277 -299.49404144 872.70971489 C-299.48412077 864.25724281 -299.48588235 855.80479953 -299.48979174 847.35232395 C-299.49603349 833.11874625 -299.49293342 818.88518522 -299.48419762 804.65160942 C-299.47555147 790.56022423 -299.4706782 776.46884654 -299.47086525 762.37745857 C-299.4708729 761.49742606 -299.47088054 760.61739354 -299.47088842 759.71069338 C-299.47092933 756.13753435 -299.47099495 752.56437533 -299.47109423 748.99121631 C-299.47199838 715.53671286 -299.46208508 682.08222077 -299.44666457 648.62772125 C-299.4330416 618.96381813 -299.42680344 589.29992307 -299.42747498 559.63601685 C-299.42751539 557.73089762 -299.42755575 555.8257784 -299.42759605 553.92065918 C-299.42761641 552.97876329 -299.42763676 552.03686741 -299.42765772 551.06642923 C-299.42775853 546.32413711 -299.42784911 541.581845 -299.42792797 536.83955288 C-299.42794468 535.90378378 -299.4279614 534.96801469 -299.42797862 534.00388896 C-299.42834453 509.14947935 -299.42379718 484.29507074 -299.41760141 459.44066197 C-299.41738113 458.5555066 -299.41716086 457.67035124 -299.41693392 456.75837299 C-299.41604579 453.19970113 -299.41515735 449.64102927 -299.41424296 446.08235742 C-299.41109476 433.74915932 -299.40957523 421.41596201 -299.40913147 409.08276354 C-299.40853205 393.18272412 -299.40449177 377.28269132 -299.39470001 361.38265472 C-299.38962067 352.99206048 -299.38716359 344.60147594 -299.3886962 336.21088024 C-299.38943879 330.5844738 -299.38646722 324.95807668 -299.38065239 319.33167323 C-299.37744942 316.1407604 -299.3762242 312.9498711 -299.37841298 309.75895684 C-299.40503993 266.06011703 -299.40503993 266.06011703 -296.99217224 245.18948364 C-296.86358826 244.05019409 -296.73500427 242.91090454 -296.6025238 241.73709106 C-290.5372776 190.62723638 -274.36687147 141.85914912 -242.24217224 101.12698364 C-241.49322693 100.16405396 -240.74428162 99.20112427 -239.97264099 98.20901489 C-193.80685116 40.22341245 -126.86089158 10.50026562 -54.22654724 2.1242981 C-50.56798165 1.73036453 -46.91184903 1.3932843 -43.24217224 1.12698364 C-42.16598112 1.04468793 -41.08978999 0.96239222 -39.98098701 0.8776027 C-26.65428399 -0.02928363 -13.35274201 -0.01273529 0 0 Z M106.75782776 157.12698364 C105.57141418 157.20410347 104.3850006 157.28122331 103.16263509 157.3606801 C99.52259454 157.59977534 95.88340817 157.84922881 92.24429321 158.10198975 C91.14138834 158.17438633 90.03848348 158.24678292 88.90215725 158.32137334 C83.13662063 158.73624087 77.58998026 159.41529449 71.94580358 160.67669046 C69.71663808 161.13546063 67.52214164 161.40842358 65.25782776 161.62698364 C56.92620685 162.00686416 56.92620685 162.00686416 49.75782776 165.12698364 C48.26662388 165.47907345 46.76400084 165.78323836 45.25782776 166.06448364 C44.35290588 166.23979614 43.44798401 166.41510864 42.51564026 166.59573364 C41.60556213 166.77104614 40.69548401 166.94635864 39.75782776 167.12698364 C34.70746871 168.1204969 29.98815582 169.30423273 25.18751526 171.21292114 C22.56835277 172.19826523 19.91764771 173.0606956 17.25465393 173.91921997 C11.7963309 175.68304779 6.54514019 177.50921267 1.48439026 180.24417114 C-0.24217224 181.12698364 -0.24217224 181.12698364 -3.80467224 182.37698364 C-24.86525933 189.92858857 -44.54052012 205.0745569 -60.86326599 219.96682739 C-63.02489176 221.92968297 -65.21743486 223.84664624 -67.42967224 225.75198364 C-74.86114635 232.26195496 -81.10294981 239.38753766 -87.24217224 247.12698364 C-88.45260193 248.62938599 -88.45260193 248.62938599 -89.68748474 250.16213989 C-99.21378698 262.12762512 -106.93311815 274.92659867 -113.55076599 288.70120239 C-115.24217224 292.12698364 -115.24217224 292.12698364 -116.80857849 294.65823364 C-118.546877 297.65170682 -119.61665433 300.66754537 -120.74217224 303.93948364 C-121.99928624 307.56980322 -123.26346916 311.18227259 -124.64451599 314.76760864 C-126.78824013 320.44923195 -128.52436434 326.26114231 -130.30467224 332.06448364 C-130.83157654 333.75734497 -130.83157654 333.75734497 -131.36912537 335.48440552 C-133.75301968 343.23093544 -136.11543757 350.9549778 -136.80467224 359.06448364 C-137.0136564 361.48272892 -137.15073281 362.94410477 -138.24217224 365.12698364 C-140.90248486 380.66037886 -141.85150426 396.53538492 -142.69529724 412.25222778 C-142.86514433 415.40187797 -143.04877769 418.55049136 -143.23435974 421.69924927 C-145.28985702 457.64138902 -145.40569916 493.58566933 -145.40942931 529.57462287 C-145.41027316 534.17111552 -145.41319437 538.7676053 -145.41626579 543.36409691 C-145.42451803 555.80760939 -145.42831491 568.25111482 -145.42759605 580.69462993 C-145.4275561 581.39410109 -145.42751614 582.09357225 -145.42747498 582.8142395 C-145.42743409 583.51462099 -145.42739321 584.21500247 -145.42735109 584.93660764 C-145.42694674 596.22518054 -145.43647513 607.51371975 -145.45061334 618.80228295 C-145.46520394 630.55017912 -145.47187128 642.29805914 -145.47101957 654.04596454 C-145.47069506 660.57816341 -145.47331194 667.11033146 -145.48419762 673.64252281 C-145.52623411 700.78717892 -145.2755825 727.89108362 -144.31761169 755.02078247 C-144.27632594 756.20251396 -144.23504018 757.38424544 -144.19250333 758.60178697 C-143.26532479 784.53518346 -141.87162019 810.55054023 -137.24217224 836.12698364 C-137.10730408 836.9036438 -136.97243591 837.68030396 -136.83348083 838.48049927 C-130.50939363 874.51393732 -118.17956131 911.44444143 -96.24217224 941.12698364 C-95.47518005 942.17628052 -94.70818787 943.22557739 -93.91795349 944.30667114 C-88.66864886 951.37079501 -83.01941548 958.01958872 -76.92527771 964.37210083 C-75.71830586 965.63054493 -74.51750972 966.89492334 -73.32078552 968.16311646 C-60.39885005 981.80580945 -45.98378858 995.22999593 -29.24217224 1004.12698364 C-28.58217224 1004.12698364 -27.92217224 1004.12698364 -27.24217224 1004.12698364 C-27.24217224 1004.78698364 -27.24217224 1005.44698364 -27.24217224 1006.12698364 C-22.78717224 1007.61198364 -22.78717224 1007.61198364 -18.24217224 1009.12698364 C-18.24217224 1009.78698364 -18.24217224 1010.44698364 -18.24217224 1011.12698364 C-12.471385 1014.1821063 -6.60474759 1016.59750325 -0.48826599 1018.88088989 C1.70274532 1019.72196403 3.87516971 1020.61290057 6.02735901 1021.54885864 C10.56920403 1023.51529465 15.21860698 1025.16443804 19.88282776 1026.81448364 C21.20347229 1027.29498169 21.20347229 1027.29498169 22.55079651 1027.78518677 C23.40544495 1028.08747192 24.26009338 1028.38975708 25.14064026 1028.70120239 C25.90779358 1028.97536987 26.6749469 1029.24953735 27.46534729 1029.53201294 C29.97785831 1030.18408848 32.17289348 1030.23114582 34.75782776 1030.12698364 C34.75782776 1030.78698364 34.75782776 1031.44698364 34.75782776 1032.12698364 C35.56478088 1032.27393677 36.37173401 1032.42088989 37.20314026 1032.57229614 C38.41743713 1032.79659302 39.63173401 1033.02088989 40.88282776 1033.25198364 C41.92455139 1033.44232178 41.92455139 1033.44232178 42.98731995 1033.63650513 C47.84973673 1034.53965667 52.68392798 1035.53627789 57.51564026 1036.59182739 C74.60658493 1040.27241266 91.26788667 1042.39834007 108.75782776 1043.12698364 C109.9297467 1043.17661255 111.10166565 1043.22624146 112.30909729 1043.27737427 C116.79461614 1043.46264973 121.27963236 1043.64763441 125.76686096 1043.78640747 C126.73067688 1043.81758667 127.6944928 1043.84876587 128.68751526 1043.88088989 C129.52524475 1043.90481812 130.36297424 1043.92874634 131.22608948 1043.95339966 C133.75782776 1044.12698364 133.75782776 1044.12698364 136.55802727 1044.61834908 C141.99085525 1045.4819417 147.44972726 1045.51738483 152.94190979 1045.68118286 C153.9839857 1045.7126263 153.9839857 1045.7126263 155.04711366 1045.74470496 C178.5448783 1046.42793441 202.06064943 1046.27363747 225.56584107 1046.26228405 C230.467638 1046.25997715 235.36943147 1046.25972291 240.27122879 1046.26079941 C240.97684951 1046.26095264 241.68247023 1046.26110587 242.4094734 1046.26126375 C243.84398873 1046.26158355 245.27850406 1046.26190777 246.71301939 1046.26223634 C260.04504511 1046.26506273 273.37706387 1046.26184686 286.70908846 1046.25643598 C298.11889302 1046.25194887 309.52868743 1046.25276498 320.93849182 1046.25735474 C334.26683154 1046.26271391 347.59516526 1046.26481077 360.9235059 1046.26174247 C362.34512846 1046.26142398 363.76675101 1046.26110961 365.18837357 1046.26079941 C365.88746748 1046.26064513 366.58656139 1046.26049086 367.30683997 1046.26033191 C372.207261 1046.25947239 377.10767817 1046.26091694 382.0080986 1046.26327896 C388.5961227 1046.26638561 395.18413058 1046.2641554 401.77215385 1046.2583847 C404.1831719 1046.25706607 406.59419157 1046.25743596 409.00520897 1046.25964737 C412.30361938 1046.26239348 415.60196881 1046.25893594 418.90037537 1046.25396729 C419.84579787 1046.25619801 420.79122038 1046.25842873 421.76529205 1046.26072705 C427.28563578 1046.24467449 432.70802566 1045.93353709 438.19996655 1045.36873519 C442.76305019 1044.93746373 447.33898555 1044.7963205 451.91798401 1044.62698364 C452.94733566 1044.58637817 453.97668732 1044.54577271 455.03723145 1044.50393677 C458.29816646 1044.37562697 461.55922772 1044.25102221 464.82032776 1044.12698364 C473.13340682 1043.8071297 481.44600808 1043.47815201 489.75782776 1043.12698364 C491.02452805 1043.07458023 491.02452805 1043.07458023 492.31681824 1043.02111816 C503.40834584 1042.54663775 514.32950608 1041.50075787 525.32032776 1039.93948364 C526.09541687 1039.83060822 526.87050598 1039.72173279 527.66908264 1039.60955811 C577.40330425 1032.54982211 623.8936448 1014.53934271 661.75782776 981.12698364 C662.26023987 980.6877356 662.76265198 980.24848755 663.2802887 979.79592896 C706.08008543 942.23124074 730.87470471 889.89325613 739.75782776 834.12698364 C739.89672424 833.26991821 740.03562073 832.41285278 740.1787262 831.52981567 C748.09853521 781.57911437 747.07451416 729.98114588 747.02842756 679.56135595 C747.02378298 674.33653408 747.0233197 669.11172521 747.02545929 663.88690186 C747.02576576 663.12973871 747.02607222 662.37257557 747.02638797 661.59246808 C747.02702773 660.05204955 747.02767616 658.51163103 747.02833316 656.97121251 C747.03397224 642.68567134 747.02758136 628.40015626 747.01673242 614.11461937 C747.00780288 601.9829856 747.00935676 589.85139017 747.01856995 577.71975708 C747.02938831 563.46878656 747.03342353 549.21783864 747.02734542 534.96686459 C747.02670864 533.4335982 747.02607989 531.90033182 747.02545929 530.36706543 C747.02515074 529.61359245 747.02484219 528.86011946 747.02452429 528.08381397 C747.02283156 522.89406598 747.02567709 517.70433308 747.0304184 512.5145874 C747.05300449 485.30764292 747.02681256 458.11530984 745.8662262 430.92776489 C745.82740216 430.00018057 745.78857812 429.07259624 745.74857759 428.11690331 C745.1839876 415.07294544 744.09816904 402.11271845 742.75782776 389.12698364 C742.63821056 387.94132813 742.51859337 386.75567261 742.39535141 385.53408813 C735.704086 320.01612445 708.9204449 257.44547987 657.50782776 214.62698364 C655.6015473 213.11380622 653.68413788 211.61457916 651.75782776 210.12698364 C650.94668518 209.49324829 650.94668518 209.49324829 650.11915588 208.84671021 C622.50697464 187.39320502 586.31526401 169.94177466 551.57814026 164.58401489 C549.05722626 164.17550113 546.57486882 163.68567319 544.07423401 163.16995239 C538.92735251 162.13172186 533.77187549 161.33504773 528.57032776 160.62698364 C527.75886292 160.50967896 526.94739807 160.39237427 526.11134338 160.27151489 C478.11349921 153.68288093 429.08528021 153.65222405 380.73922989 153.72108338 C375.68158705 153.72808847 370.62397439 153.72873125 365.56632805 153.72553635 C364.82992371 153.72507665 364.09351937 153.72461695 363.33479975 153.72414332 C361.83603433 153.72318357 360.33726893 153.72221092 358.83850353 153.72122554 C344.9779947 153.71279106 331.11754661 153.72231324 317.25704776 153.73862664 C305.5203797 153.75201582 293.78380086 153.7496895 282.0471344 153.73587036 C268.21752917 153.71959313 254.38797639 153.71361679 240.5583629 153.72270715 C239.06662302 153.7236622 237.57488313 153.72460532 236.08314323 153.72553635 C235.35031692 153.72599917 234.61749061 153.726462 233.86245744 153.72693885 C228.84711441 153.72946376 223.83180679 153.72524442 218.81646919 153.71809769 C181.37909017 153.66949476 144.11840523 154.64043924 106.75782776 157.12698364 Z " fill="#F13278" transform="translate(299.24217224121094,-0.126983642578125)"/>
<path d="M0 0 C5.10044997 0.00185423 10.20088721 -0.00002018 15.30133568 -0.00420872 C16.03992561 -0.00480391 16.77851553 -0.0053991 17.53948696 -0.00601233 C19.04219958 -0.00722467 20.54491219 -0.0084388 22.0476248 -0.0096547 C36.00626557 -0.0204244 49.96488194 -0.01841947 63.923524 -0.01226986 C76.53804546 -0.00711783 89.1524893 -0.01833 101.76699544 -0.03736808 C114.88578663 -0.05700707 128.00454162 -0.06495738 141.12334751 -0.06124483 C148.4217092 -0.0593705 155.72000453 -0.06152077 163.01835381 -0.07595937 C216.46902247 -0.17563973 270.37329376 0.65296714 323.34449136 8.55626758 C323.98918374 8.6523833 324.63387612 8.74849902 325.29810464 8.84752734 C327.39917886 9.30236133 327.39917886 9.30236133 330.24683511 10.26549609 C333.45112847 11.31944853 336.58140844 11.99720919 339.89136636 12.63829883 C347.31537431 14.19478856 354.37329086 16.41647358 361.52417886 18.92736133 C362.14958565 19.14545459 362.77499245 19.36354785 363.41935097 19.58825 C405.98071987 34.47484117 443.50467165 59.48099776 471.39917886 95.30236133 C472.11589761 96.20212695 472.83261636 97.10189258 473.57105386 98.02892383 C513.0233921 148.81331667 523.83482962 212.77759118 526.08300149 275.39891895 C526.22818656 279.36307009 526.40029545 283.32119515 526.63508069 287.28136714 C527.47496889 301.61004852 527.55440219 315.91047087 527.56031167 330.26036914 C527.56495242 332.9180651 527.56996043 335.57575832 527.57535683 338.23345264 C527.58881557 345.40988872 527.59494885 352.58631913 527.59936749 359.76276572 C527.60215839 364.28144585 527.60640108 368.80012394 527.61087167 373.31880267 C527.62306155 385.92967038 527.63335268 398.54053648 527.63674676 411.15140994 C527.63696632 411.95553869 527.63718589 412.75966745 527.63741211 413.58816374 C527.63763039 414.39383778 527.63784866 415.19951182 527.63807356 416.02960022 C527.63851696 417.6612107 527.63896352 419.29282117 527.63941323 420.92443164 C527.63963466 421.73370588 527.63985609 422.54298012 527.64008423 423.37677782 C527.64399731 436.36881389 527.6613441 449.36079267 527.68477275 462.3528068 C527.70885914 475.82349897 527.72096556 489.29416298 527.72211467 502.76487692 C527.72301245 510.2739781 527.72834863 517.78300447 527.74693429 525.29208453 C527.82045751 556.28696803 527.47555209 587.20046409 526.00367104 618.16466602 C525.97215229 618.83513416 525.94063353 619.50560231 525.90815967 620.19638767 C523.98844519 660.87238023 523.98844519 660.87238023 520.52417886 680.55236133 C520.34838296 681.5628252 520.17258706 682.57328906 519.99146401 683.61437305 C519.47653279 686.51356949 518.9432852 689.4085139 518.39917886 692.30236133 C518.19518471 693.40595996 518.19518471 693.40595996 517.98706948 694.53185352 C513.74266856 716.73416393 505.46312495 739.12375755 495.39917886 759.30236133 C495.05644936 759.99345996 494.71371987 760.68455859 494.36060464 761.39659961 C485.96967782 778.13426932 475.15875628 793.26812346 462.48902261 807.02892383 C460.54046471 809.14866345 458.65160553 811.30719602 456.77417886 813.48986133 C451.08211367 819.98765263 445.00383506 825.58842737 438.25855386 830.99376758 C436.45319084 832.45137624 434.66852926 833.93536121 432.91480386 835.45470508 C419.94498129 846.59183533 404.91807927 855.23456641 389.39917886 862.30236133 C388.34174477 862.78866016 388.34174477 862.78866016 387.26294839 863.2847832 C373.69826255 869.4524622 359.69264111 874.12963401 345.39917886 878.30236133 C344.54726968 878.55115039 343.6953605 878.79993945 342.81763589 879.05626758 C312.88728012 887.52997801 281.31719792 889.21296804 250.39917886 890.30236133 C249.68109048 890.32816272 248.9630021 890.35396411 248.22315346 890.38054736 C236.52060469 890.80050329 236.52060469 890.80050329 230.743173 890.96154102 C229.66672524 890.99280078 228.59027749 891.02406055 227.48121011 891.05626758 C226.56573403 891.0801958 225.65025796 891.10412402 224.70704018 891.12877734 C221.9089137 891.27561238 219.15733932 891.52288227 216.3710283 891.80527385 C210.74764967 892.32040046 205.18561483 892.44266171 199.54172646 892.42934497 C198.5061385 892.43090496 197.47055055 892.43246495 196.40358113 892.43407222 C192.96313401 892.43803316 189.52273171 892.43491148 186.08228432 892.43175586 C183.60221713 892.43311226 181.12215013 892.43489354 178.64208352 892.43706592 C172.61731288 892.44114472 166.59255954 892.44055724 160.56778959 892.43765328 C155.65510025 892.43538482 150.74241438 892.43509296 145.82972466 892.43617709 C144.77635027 892.43640694 144.77635027 892.43640694 143.70169559 892.43664144 C142.2743126 892.43696122 140.8469296 892.43728543 139.41954661 892.43761403 C126.0449849 892.44046272 112.67043006 892.43719377 99.29586948 892.43181366 C87.89280247 892.42736767 76.48974567 892.42810442 65.08667886 892.43273242 C51.79051586 892.43812637 38.49435891 892.44016563 25.19819497 892.43712016 C23.76965661 892.43680169 22.34111825 892.43648732 20.91257989 892.43617709 C20.21009191 892.43602282 19.50760394 892.43586854 18.78382845 892.43570959 C13.90501912 892.43485716 9.02621375 892.4363001 4.14740502 892.43865665 C-46.39021255 892.46083791 -46.39021255 892.46083791 -66.41673911 891.85656055 C-67.71508249 891.81783895 -69.01342586 891.77911735 -70.35111297 891.73922237 C-75.54133792 891.55478848 -80.48066266 891.20082191 -85.60082114 890.30236133 C-87.28895166 890.18661776 -88.97972974 890.10457946 -90.67113364 890.05626758 C-91.63454673 890.02516895 -92.59795982 889.99407031 -93.59056724 889.9620293 C-94.62520103 889.92996387 -95.65983482 889.89789844 -96.72582114 889.86486133 C-100.1746569 889.73203898 -103.62308852 889.59117239 -107.07152427 889.44835742 C-109.36173012 889.35361869 -111.65209305 889.26257766 -113.94261802 889.17589648 C-132.37691085 888.42007956 -149.91288482 885.41220721 -167.89043296 881.51760181 C-173.43939525 880.31875193 -179.0063742 879.26452552 -184.60082114 878.30236133 C-184.60082114 877.64236133 -184.60082114 876.98236133 -184.60082114 876.30236133 C-186.26371177 876.15347461 -186.26371177 876.15347461 -187.96019614 876.00158008 C-193.14295244 875.34860748 -197.91968367 873.79349879 -202.85082114 872.11486133 C-203.77741538 871.8031499 -204.70400962 871.49143848 -205.65868247 871.17028125 C-211.72668242 869.07858161 -217.35296979 866.68992791 -223.01097739 863.65392383 C-226.45735836 861.85536001 -230.01362943 860.45473097 -233.63988364 859.06408008 C-235.60082114 858.30236133 -235.60082114 858.30236133 -237.60082114 857.30236133 C-237.60082114 856.64236133 -237.60082114 855.98236133 -237.60082114 855.30236133 C-242.05582114 853.81736133 -242.05582114 853.81736133 -246.60082114 852.30236133 C-246.60082114 851.64236133 -246.60082114 850.98236133 -246.60082114 850.30236133 C-247.42066489 850.09868945 -248.24050864 849.89501758 -249.08519614 849.68517383 C-253.65583689 847.88738847 -257.02449757 845.21084308 -260.85082114 842.17736133 C-261.55078208 841.63337695 -262.25074302 841.08939258 -262.97191489 840.52892383 C-264.42716814 839.39440946 -265.87729924 838.25330007 -267.32274497 837.10631641 C-268.86602715 835.88422745 -270.41829342 834.67341383 -271.97850669 833.47301563 C-278.73782602 828.21100114 -284.87235335 822.42952755 -290.91332114 816.36486133 C-291.41494773 815.86302325 -291.91657432 815.36118518 -292.43340171 814.84413989 C-300.99645668 806.24516579 -308.71917446 797.31083488 -315.60082114 787.30236133 C-316.19709312 786.45713916 -316.19709312 786.45713916 -316.80541099 785.5948418 C-340.47830185 751.85821031 -352.54611037 711.64509073 -358.60082114 671.30236133 C-358.72150962 670.49830859 -358.8421981 669.69425586 -358.9665438 668.86583789 C-362.21281644 646.36175574 -362.9445563 623.39498202 -363.70921958 600.69860156 C-363.75114417 599.48707066 -363.79306875 598.27553975 -363.83626378 597.02729579 C-364.74622114 570.27067156 -364.89773154 543.5281072 -364.86947215 516.75838097 C-364.86478005 510.87255008 -364.86844163 504.98672627 -364.87132654 499.10089506 C-364.87693728 486.73399219 -364.87062176 474.36711967 -364.85972581 462.0002218 C-364.85080112 451.54989447 -364.85235194 441.09961169 -364.86156333 430.64928516 C-364.87243812 418.3073134 -364.87638669 405.96536778 -364.87033881 393.62339189 C-364.86725613 387.16581325 -364.86659126 380.7082588 -364.87341178 374.25068172 C-365.00859156 226.11790216 -365.00859156 226.11790216 -356.60082114 209.30236133 C-356.30308934 207.59851003 -356.03782911 205.88893933 -355.78832114 204.17736133 C-352.65618841 184.99872247 -347.30132827 164.70337558 -338.60082114 147.30236133 C-337.87366296 145.59555949 -337.1466756 143.88868343 -336.42211021 142.1807793 C-327.49125969 121.75451179 -315.53899149 103.49045761 -300.87962974 86.76476367 C-299.72013681 85.4388067 -298.57560169 84.09980662 -297.43285239 82.75939258 C-276.16181843 58.29570811 -245.96351312 35.26329714 -214.92503989 25.09142383 C-212.61547436 24.30733603 -210.48808116 23.35215572 -208.28832114 22.30236133 C-202.30064549 19.56205571 -195.9387873 18.02039771 -189.60082114 16.30236133 C-184.80352233 14.99190734 -184.80352233 14.99190734 -180.16332114 13.23986133 C-177.78252057 12.36883673 -175.85116123 12.02409182 -173.35082114 11.73986133 C-169.81164601 11.71998722 -169.81164601 11.71998722 -168.60082114 10.30236133 C-165.62336108 9.78078424 -162.65294082 9.30550822 -159.66332114 8.86486133 C-154.78975931 8.13901169 -149.96464197 7.39467684 -145.15941489 6.29845508 C-137.92692323 4.82554695 -130.55968072 4.4769968 -123.20921958 3.97960742 C-120.71669138 3.81023495 -118.22521599 3.62958192 -115.73363364 3.44689258 C-109.69228469 3.01562677 -103.64677925 2.66211844 -97.60082114 2.30236133 C-96.28588802 2.22127942 -94.97095489 2.14019752 -93.6161753 2.05665858 C-62.41883224 0.15969223 -31.24495823 -0.01166579 0 0 Z M-85.16678489 81.74894031 C-86.24963887 81.78761621 -87.33249286 81.82629212 -88.4481606 81.86614003 C-89.4492206 81.90736428 -90.4502806 81.94858853 -91.48167575 81.991062 C-92.78934367 82.04466173 -92.78934367 82.04466173 -94.12342913 82.09934427 C-96.67875439 82.30874779 -99.0937142 82.77631943 -101.60082114 83.30236133 C-103.55950432 83.45463128 -105.52111146 83.57155546 -107.48363364 83.66173633 C-135.63085249 84.94712945 -135.63085249 84.94712945 -162.60082114 92.30236133 C-164.30411701 92.69961563 -166.01312134 93.07283746 -167.72582114 93.42736133 C-193.16064372 99.67670348 -214.87863566 114.51762433 -233.60082114 132.30236133 C-234.28531333 132.91079883 -234.96980552 133.51923633 -235.67503989 134.14611133 C-255.22432531 152.17899515 -266.00305625 178.00432232 -272.9731356 203.06334766 C-273.41657457 204.64513637 -273.87490416 206.22278666 -274.34374107 207.79723438 C-276.45477721 215.08465592 -277.68166061 222.34765907 -278.66332114 229.86486133 C-278.8332357 231.15988574 -279.00315025 232.45491016 -279.17821372 233.78917773 C-280.41488622 243.563371 -281.21874738 253.34322553 -281.78832114 263.17736133 C-281.85994468 264.4130083 -281.93156822 265.64865527 -282.00536216 266.92174609 C-282.18912194 270.4636432 -282.34374767 274.00494717 -282.48764003 277.54859718 C-282.5635095 279.39454683 -282.64239646 281.24037477 -282.72420276 283.08607085 C-283.930224 311.02839168 -283.74906712 338.99213323 -283.73612097 366.95416673 C-283.73381423 372.07508169 -283.73356093 377.19599334 -283.73463691 382.31690868 C-283.73479014 383.05459059 -283.73494338 383.79227251 -283.73510125 384.55230843 C-283.73542108 386.05240574 -283.7357453 387.55250305 -283.73607384 389.05260037 C-283.73890455 403.01866268 -283.73568014 416.98471837 -283.73027348 430.9507796 C-283.72581048 442.84589024 -283.72658195 454.7409911 -283.73119224 466.63610156 C-283.73658592 480.55833063 -283.73862717 494.48055392 -283.73557997 508.40278389 C-283.73526154 509.89731149 -283.73494716 511.39183908 -283.73463691 512.88636668 C-283.73448263 513.62107604 -283.73432836 514.35578539 -283.73416941 515.11275866 C-283.7333183 520.20577478 -283.73475574 525.29878709 -283.73711646 530.39180263 C-284.08273509 584.11740447 -284.08273509 584.11740447 -281.22582114 637.73986133 C-281.15979697 638.50488971 -281.09377281 639.26991809 -281.0257479 640.05812915 C-277.01826796 686.35215121 -264.74199939 732.87488187 -228.72582114 764.86486133 C-227.35458244 766.01519321 -225.97932633 767.16074735 -224.60082114 768.30236133 C-223.80289146 768.99974414 -223.00496177 769.69712695 -222.18285239 770.41564258 C-164.42569548 819.81208844 -72.86241584 811.6384043 -2.05645524 811.57296148 C3.10362638 811.56832118 8.26369482 811.56785123 13.42377793 811.56999286 C14.17082355 811.57029932 14.91786916 811.57060579 15.68755252 811.57092154 C17.20727912 811.57156128 18.72700571 811.57220972 20.24673229 811.57286673 C34.3500266 811.57850969 48.45329451 811.57210881 62.55658448 811.56126599 C74.53822742 811.55233795 86.51983154 811.55388831 98.50147378 811.56310352 C112.56818752 811.57391801 126.63487839 811.57795902 140.70159572 811.57187899 C142.21465181 811.57124219 143.72770791 811.57061344 145.24076401 811.56999286 C145.98434694 811.56968431 146.72792987 811.56937576 147.49404562 811.56905786 C152.62007731 811.56736386 157.74609376 811.57021115 162.87212311 811.57495197 C289.94028985 815.32105135 289.94028985 815.32105135 398.58667886 758.42736133 C423.61278563 733.16050121 436.05700897 699.11327445 441.4943937 664.55870898 C441.62542135 663.72911017 441.756449 662.89951135 441.89144718 662.04477318 C444.39673925 645.96034027 445.68141806 629.96550167 446.1800698 613.69930013 C446.25326998 611.37034743 446.33496353 609.04180907 446.41836297 606.71320041 C448.21578489 555.79950251 447.85274035 504.81593045 447.78756764 453.87699716 C447.77412044 443.175653 447.77652035 432.47440698 447.79029214 421.77306445 C447.80661813 409.08260168 447.81252376 396.39219607 447.80345535 383.70172425 C447.80250051 382.33040723 447.80155738 380.9590902 447.80062615 379.58777316 C447.79993191 378.57786936 447.79993191 378.57786936 447.79922365 377.54756346 C447.79671624 372.97662375 447.80097807 368.40572403 447.80806481 363.83479007 C447.8452792 335.99169577 447.42809168 308.21412675 446.1123568 280.4031096 C446.04801693 279.04295409 445.98425387 277.68277116 445.92110261 276.32255994 C443.92730619 233.39220772 439.13837435 189.82773348 414.39917886 153.30236133 C413.69921792 152.26595508 412.99925698 151.22954883 412.27808511 150.16173633 C394.01882075 124.97217927 368.82036941 106.29711984 339.39917886 96.30236133 C338.23902261 95.89501758 337.07886636 95.48767383 335.88355386 95.06798633 C283.46667698 77.26576877 224.35126085 80.99113242 169.7369046 81.06352285 C161.49678539 81.07414997 153.25667544 81.07384817 145.01655069 81.07336656 C130.29667132 81.07287009 115.57681396 81.08191702 100.85694253 81.09655078 C86.65348793 81.11066329 72.45005266 81.11771975 58.24659096 81.11705859 C56.93090202 81.11699866 56.93090202 81.11699866 55.58863349 81.11693751 C54.71284475 81.11689716 53.837056 81.11685681 52.9347282 81.11681523 C36.63072184 81.1161218 20.3267235 81.1220314 4.02271976 81.13096844 C-1.68975915 81.13395553 -7.40223657 81.13504443 -13.11471618 81.13550075 C-20.08784287 81.13618975 -27.06095601 81.14074895 -34.03407697 81.14983356 C-37.5757147 81.15438203 -41.11733537 81.15752348 -44.6589762 81.15623935 C-58.17007521 81.15448884 -71.66362743 81.25379942 -85.16678489 81.74894031 Z " fill="#FEFEFE" transform="translate(518.6008211448789,153.6976386718452)"/>
<path d="M0 0 C0.62616211 0.25475098 1.25232422 0.50950195 1.89746094 0.77197266 C27.49200486 11.22340572 50.23502728 25.20039762 70.640625 43.86328125 C72.68167962 45.71171979 74.76374282 47.48334885 76.875 49.25 C107.31746408 75.88715607 128.40070765 115.50151936 139 154 C139.19287598 154.68658691 139.38575195 155.37317383 139.58447266 156.08056641 C144.68814606 174.60418662 146.27625087 193.41642609 146.25 212.5625 C146.24931519 213.27066864 146.24863037 213.97883728 146.2479248 214.70846558 C146.13662425 249.55211521 139.27971894 283.93955123 123 315 C122.25474284 316.50303112 121.51138095 318.0070029 120.76953125 319.51171875 C105.43349302 350.14038548 81.61642073 377.77292982 54 398 C52.69482422 398.96292969 52.69482422 398.96292969 51.36328125 399.9453125 C19.26353019 422.99923999 -17.84894858 436.99915385 -57 442 C-58.17949219 442.15082031 -59.35898437 442.30164063 -60.57421875 442.45703125 C-120.57049909 448.33901952 -180.69478082 429.20118798 -227.4375 391.6875 C-233.49228816 386.67067552 -239.27930248 381.39127533 -245 376 C-245.7321875 375.31035156 -246.464375 374.62070312 -247.21875 373.91015625 C-252.63043303 368.65953522 -257.3220234 362.90409066 -262 357 C-263.17369141 355.56914063 -263.17369141 355.56914063 -264.37109375 354.109375 C-300.96345093 308.44211324 -317.03762396 247.37833201 -311.34765625 189.546875 C-304.41016729 129.86219357 -274.45719951 72.9211174 -227.08984375 35.33984375 C-215.88296269 26.85321701 -204.40333162 18.98796488 -192.10205078 12.16601562 C-190.74102431 11.41104902 -189.38484036 10.64725753 -188.03466797 9.87304688 C-177.5905741 3.92597058 -166.60912974 -0.07654575 -155.25 -3.875 C-154.20126709 -4.22786575 -154.20126709 -4.22786575 -153.13134766 -4.58786011 C-143.85321105 -7.68760367 -134.62074427 -10.15230739 -125 -12 C-124.19208008 -12.16790039 -123.38416016 -12.33580078 -122.55175781 -12.50878906 C-82.97122555 -20.51723233 -37.07922712 -15.46717117 0 0 Z " fill="#FEFEFE" transform="translate(683,386)"/>
<path d="M0 0 C0.78952057 0.00026184 1.57904114 0.00052368 2.39248657 0.00079346 C44.23583987 0.16428732 79.9485778 17.7792382 109.27734375 47.01953125 C137.38395009 76.63581313 149.70403295 115.46071458 148.99609375 155.7265625 C147.88157125 187.92285137 134.71918266 220.08303803 113.6875 244.4375 C112.87667969 245.38238281 112.06585937 246.32726562 111.23046875 247.30078125 C100.0722218 260.02900145 87.41236791 270.11892892 72.6875 278.4375 C72.04055176 278.80359375 71.39360352 279.1696875 70.72705078 279.546875 C41.32313344 295.87170515 -0.17632175 303.10576299 -33.13867188 294.06689453 C-33.85603516 293.85919434 -34.57339844 293.65149414 -35.3125 293.4375 C-36.65151367 293.05827393 -36.65151367 293.05827393 -38.01757812 292.67138672 C-62.56967545 285.53123597 -83.82315884 274.20119983 -102.3125 256.4375 C-103.26769531 255.54546875 -104.22289062 254.6534375 -105.20703125 253.734375 C-126.29997166 233.68705589 -140.18878267 206.78242922 -146.3125 178.4375 C-146.5763147 177.32810059 -146.5763147 177.32810059 -146.84545898 176.19628906 C-148.59116769 168.05844553 -148.65078511 160.01750113 -148.62817383 151.73339844 C-148.62503267 149.33741883 -148.64848198 146.94270127 -148.67382812 144.546875 C-148.83855933 104.61033512 -130.53597348 68.0167905 -102.8203125 39.91015625 C-74.64916421 13.63247858 -38.27912966 -0.02921725 0 0 Z " fill="#FE0C63" transform="translate(600.3125,451.5625)"/>
<path d="M0 0 C12.27733917 8.59169659 20.08442238 19.76789593 23.64453125 34.390625 C25.87994154 48.34627055 23.08867892 62.38983045 15.578125 74.3671875 C12.73503599 78.25078847 9.63107373 81.76338662 6.0625 85 C5.14404297 85.83337891 5.14404297 85.83337891 4.20703125 86.68359375 C-8.28628442 97.26536385 -22.65613764 98.8862416 -38.36474609 98.2265625 C-47.61702823 97.41178571 -55.69229968 92.54799788 -62.9375 87 C-63.55109375 86.55011719 -64.1646875 86.10023438 -64.796875 85.63671875 C-74.69104555 77.86585472 -81.40802043 65.43667731 -82.9375 53 C-84.03272738 35.31477099 -80.32836343 21.43110952 -68.625 7.75 C-64.45052441 3.31158086 -60.30819209 -0.12253858 -54.9375 -3 C-54.07511719 -3.48597656 -53.21273437 -3.97195313 -52.32421875 -4.47265625 C-35.61916239 -12.41585524 -15.20127333 -9.6508084 0 0 Z " fill="#FEFDFE" transform="translate(867.9375,317)"/>
<path d="M0 0 C0.66 0.33 1.32 0.66 2 1 C-8.23 11.23 -18.46 21.46 -29 32 C-29 28.36543209 -28.38326341 27.97079096 -25.95703125 25.41015625 C-24.97283203 24.36492798 -24.97283203 24.36492798 -23.96875 23.29858398 C-23.2571875 22.56067627 -22.545625 21.82276855 -21.8125 21.0625 C-21.09449219 20.308479 -20.37648438 19.55445801 -19.63671875 18.77758789 C-13.34677475 12.2313509 -6.78399281 6.02892512 0 0 Z " fill="#A008F3" transform="translate(93,63)"/>
</svg>
