<?xml version="1.0" encoding="UTF-8"?>
<svg version="1.1" xmlns="http://www.w3.org/2000/svg" width="920" height="920">
<path d="M0 0 C303.6 0 607.2 0 920 0 C920 303.6 920 607.2 920 920 C616.4 920 312.8 920 0 920 C0 616.4 0 312.8 0 0 Z " fill="#FEE711" transform="translate(0,0)"/>
<path d="M0 0 C65.19540813 -1.36229211 132.98387816 12.11457473 192.05029297 39.90869141 C194.42344349 41.02111971 196.80835122 42.0991896 199.203125 43.1640625 C224.37038107 54.46647996 248.23235947 69.7587594 269.63671875 87.12109375 C270.54808594 87.84167969 271.45945312 88.56226563 272.3984375 89.3046875 C289.54897346 103.03000943 306.22463397 118.71051691 319.63671875 136.12109375 C320.72207068 137.4689701 321.80948828 138.81518449 322.8984375 140.16015625 C330.55572153 149.69744131 337.30790007 159.47477612 343.43896484 170.05615234 C344.54837774 171.96879284 345.67691445 173.86844914 346.8125 175.765625 C378.60104508 229.77528896 386.20525203 294.73467338 371.01171875 355.18359375 C361.9277481 389.89630354 345.46363468 420.80405061 323.63671875 449.12109375 C323.00121094 449.95253906 322.36570312 450.78398438 321.7109375 451.640625 C307.88009484 469.36586642 291.43732605 486.40460847 273.63671875 500.12109375 C272.51275753 501.04208458 271.39187121 501.96683574 270.2734375 502.89453125 C241.95018828 526.26587091 208.6581738 544.55000094 174.63671875 558.12109375 C173.28006104 558.66926758 173.28006104 558.66926758 171.89599609 559.22851562 C128.91056452 576.46750365 83.65468409 585.2180099 37.63671875 589.12109375 C36.08247192 589.26683838 36.08247192 589.26683838 34.49682617 589.41552734 C25.34936688 590.22087436 16.24880889 590.27896816 7.07421875 590.24609375 C5.8772789 590.24326889 5.8772789 590.24326889 4.65615845 590.24038696 C-13.2592788 590.19086895 -13.2592788 590.19086895 -21.67578125 589.80859375 C-22.40998291 589.77967041 -23.14418457 589.75074707 -23.90063477 589.72094727 C-28.92586359 589.45094614 -33.78838509 588.73802453 -38.75 587.89453125 C-55.26030656 584.92398368 -55.26030656 584.92398368 -70.63769531 590.20947266 C-73.89249283 592.70358803 -76.98375822 595.33204783 -80.02294922 598.08398438 C-83.96667156 601.51674249 -88.29471755 604.37297084 -92.61328125 607.30859375 C-94.28929494 608.47827302 -95.96380704 609.65010722 -97.63671875 610.82421875 C-103.82252117 615.14406627 -110.03443759 619.42500524 -116.26220703 623.68408203 C-117.67515453 624.65045537 -119.08758101 625.61759089 -120.49951172 626.58544922 C-126.43651788 630.65457492 -132.38622451 634.70482598 -138.34106445 638.74780273 C-139.79228599 639.73332985 -141.24326698 640.71921121 -142.6940918 641.70532227 C-148.15603964 645.41762844 -153.6217327 649.12434407 -159.09091187 652.82598877 C-160.94721589 654.08329488 -162.80257946 655.34199087 -164.65689087 656.60223389 C-174.54480117 663.32029262 -184.48904916 669.91667376 -194.6484375 676.21875 C-195.49281876 676.74300568 -196.33720001 677.26726135 -197.20716858 677.80740356 C-202.45718083 681.03402913 -207.78414947 684.06556464 -213.23828125 686.93359375 C-213.85811386 687.26398651 -214.47794647 687.59437927 -215.11656189 687.93478394 C-219.33578883 690.02715339 -222.684612 690.55472651 -227.36328125 690.12109375 C-230.45476496 688.08722289 -231.21163733 686.71522685 -232.125 683.13671875 C-232.75074715 678.0075892 -231.18425668 673.33311136 -229.80078125 668.43359375 C-229.5277417 667.42772217 -229.25470215 666.42185059 -228.97338867 665.38549805 C-226.90863468 657.85574066 -224.6849263 650.37400279 -222.40405273 642.90722656 C-220.83767865 637.77038776 -219.44963804 632.62503254 -218.1953125 627.40234375 C-216.36374838 620.17927396 -214.22362495 613.03661333 -212.15722656 605.87792969 C-211.14976418 602.37969315 -210.15333831 598.87836571 -209.15698242 595.37695312 C-206.42506445 585.78103425 -203.64338278 576.20014329 -200.84375 566.6237793 C-198.65420147 559.13110969 -196.49204388 551.63126253 -194.36328125 544.12109375 C-195.16121094 543.89292969 -195.95914063 543.66476562 -196.78125 543.4296875 C-201.34137171 541.76377608 -205.43847342 539.53801592 -209.67578125 537.18359375 C-210.99703003 536.45160767 -210.99703003 536.45160767 -212.3449707 535.70483398 C-220.9413048 530.88578245 -229.21342966 525.65695024 -237.36328125 520.12109375 C-238.06549805 519.64559082 -238.76771484 519.17008789 -239.49121094 518.68017578 C-265.92168953 500.67689348 -291.97629107 478.68720431 -311.36328125 453.12109375 C-312.15476562 452.12335938 -312.94625 451.125625 -313.76171875 450.09765625 C-343.86100576 412.04376581 -362.80928063 367.32747234 -368.36328125 319.12109375 C-368.49734375 317.99445313 -368.63140625 316.8678125 -368.76953125 315.70703125 C-374.00378189 261.76517048 -358.59295048 203.44707589 -327.36328125 159.12109375 C-326.96012695 158.53972656 -326.55697266 157.95835937 -326.14160156 157.359375 C-320.83669234 149.70986716 -315.3131068 142.28472707 -309.36328125 135.12109375 C-308.56277344 134.13496094 -307.76226562 133.14882813 -306.9375 132.1328125 C-300.62026779 124.46953009 -293.80124391 117.34988987 -286.80078125 110.30859375 C-285.50781128 109.00184692 -285.50781128 109.00184692 -284.1887207 107.66870117 C-278.2215274 101.72974826 -271.94037318 96.36924611 -265.36328125 91.12109375 C-264.18964007 90.14429986 -263.01857978 89.16438572 -261.8515625 88.1796875 C-245.08814024 74.24411357 -226.43606874 62.61281026 -207.36328125 52.12109375 C-206.63560547 51.71810059 -205.90792969 51.31510742 -205.15820312 50.89990234 C-195.13048279 45.37300644 -184.92036632 40.54369543 -174.36328125 36.12109375 C-173.36167969 35.693125 -172.36007812 35.26515625 -171.328125 34.82421875 C-168.35033931 33.56265342 -165.35963033 32.3379038 -162.36328125 31.12109375 C-161.75419922 30.8689209 -161.14511719 30.61674805 -160.51757812 30.35693359 C-109.49739514 9.30796648 -54.79452639 1.5509094 0 0 Z " fill="#000000" transform="translate(455.36328125,128.87890625)"/>
<path d="M0 0 C11.13694646 7.98283315 15.02375278 18.53456474 19.625 31.03125 C20.04872391 32.16774994 20.47244781 33.30424988 20.90901184 34.47518921 C22.04322257 37.51946216 23.17273408 40.5654273 24.30035782 43.61214447 C25.48053571 46.79663708 26.66739996 49.97863307 27.85424805 53.16064453 C28.09009078 53.79300837 28.32593351 54.4253722 28.568923 55.07689857 C29.04316355 56.34845259 29.51742539 57.61999867 29.99170876 58.89153671 C30.69719293 60.78362929 31.4019888 62.67597697 32.10661316 64.56838989 C35.62842116 74.02215004 39.19612066 83.45706827 42.8125 92.875 C43.30721329 94.16606467 43.80184233 95.45716164 44.29638672 96.74829102 C46.54053909 102.60401705 48.79064137 108.45743571 51.04541016 114.30908203 C52.8821631 119.07665795 54.71346561 123.84630289 56.54208374 128.61700439 C57.2533242 130.46945657 57.96650056 132.32116684 58.68179321 134.17205811 C70.69930685 165.27230928 70.69930685 165.27230928 67.37890625 177.23828125 C65.4197163 181.30468883 62.49149349 183.54366139 58.46875 185.27734375 C50.94241388 187.48046429 43.42450328 187.76086247 36 185.1796875 C30.12887887 181.7166434 27.77199686 177.02916356 25.4375 170.9375 C25.15970703 170.24978516 24.88191406 169.56207031 24.59570312 168.85351562 C22.12761697 162.64074703 20.12057951 156.36173853 18 150 C-14.67 149.505 -14.67 149.505 -48 149 C-48.99 152.3 -49.98 155.6 -51 159 C-52.32982991 162.83647899 -53.81126984 166.60267807 -55.3125 170.375 C-55.67794922 171.34566406 -56.04339844 172.31632813 -56.41992188 173.31640625 C-58.71758746 179.07049106 -60.35219018 182.26304263 -66 185 C-74.66037543 188.20754646 -82.60457831 187.62693777 -91 184 C-95.52325232 180.41909191 -97.60554133 176.94390733 -98.37109375 171.23046875 C-98.71325386 155.55148489 -91.44556224 140.53555397 -85.875 126.125 C-85.17660477 124.30709978 -84.47878539 122.48897825 -83.78149414 120.6706543 C-82.67686312 117.7903556 -81.5718469 114.91021064 -80.46504211 112.03074646 C-76.89966029 102.75356546 -73.37245734 93.4620665 -69.84887695 84.16894531 C-68.24509016 79.93922613 -66.6381714 75.71072025 -65.02807617 71.48339844 C-64.2322548 69.39388185 -63.43643772 67.30436363 -62.640625 65.21484375 C-62.25095047 64.19174103 -61.86127594 63.16863831 -61.45979309 62.11453247 C-59.19680861 56.16643183 -56.95152648 50.21207278 -54.72337341 44.25083923 C-53.36996572 40.63475369 -52.00671583 37.0224277 -50.64163208 33.41073608 C-50.01493234 31.74519609 -49.39277528 30.07793835 -48.77560425 28.40884399 C-44.31013495 16.33851612 -39.5266872 5.17300721 -27.68359375 -1.2578125 C-18.08297915 -5.55480119 -9.16418497 -5.27118237 0 0 Z " fill="#FDE711" transform="translate(396,340)"/>
<path d="M0 0 C4.87775149 3.0039811 8.70398701 7.93583239 10.921875 13.18359375 C11.2003479 15.63873291 11.2003479 15.63873291 11.24072266 18.41113281 C11.26059235 19.45190979 11.28046204 20.49268677 11.30093384 21.56500244 C11.31248505 22.68179382 11.32403625 23.79858521 11.3359375 24.94921875 C11.35530365 26.0977533 11.3746698 27.24628784 11.3946228 28.42962646 C11.45439626 32.09754005 11.50079564 35.76548504 11.546875 39.43359375 C11.58505678 41.92058659 11.62410862 44.40756624 11.6640625 46.89453125 C11.76009605 52.99076828 11.84515029 59.08708479 11.921875 65.18359375 C13.0703315 64.0251445 13.0703315 64.0251445 14.24198914 62.84329224 C21.45818292 55.56628485 28.68228406 48.29721072 35.91420269 41.03582954 C39.63195438 37.3024217 43.34686373 33.56627453 47.05541992 29.82373047 C50.63444151 26.21211434 54.22074058 22.60787477 57.81220436 19.00863266 C59.18115811 17.63413563 60.5474685 16.25700068 61.9110775 14.87720108 C63.82140214 12.94510161 65.74090854 11.02259341 67.6628418 9.10205078 C68.50549591 8.24321793 68.50549591 8.24321793 69.36517334 7.36703491 C73.67932063 3.08654855 76.7060676 1.36521731 82.734375 0.87109375 C88.58633498 1.04775669 93.19515487 2.7315791 97.671875 6.49609375 C102.55508209 12.32881333 105.01569964 16.53018374 104.921875 24.18359375 C104.00398023 30.09891557 101.34191837 34.23197889 96.921875 38.18359375 C96.261875 38.18359375 95.601875 38.18359375 94.921875 38.18359375 C94.65375 38.82296875 94.385625 39.46234375 94.109375 40.12109375 C92.921875 42.18359375 92.921875 42.18359375 89.921875 43.18359375 C88.71305404 45.18375841 88.71305404 45.18375841 87.921875 47.18359375 C87.261875 47.18359375 86.601875 47.18359375 85.921875 47.18359375 C85.65375 47.82296875 85.385625 48.46234375 85.109375 49.12109375 C83.921875 51.18359375 83.921875 51.18359375 80.921875 52.18359375 C79.71305404 54.18375841 79.71305404 54.18375841 78.921875 56.18359375 C78.261875 56.18359375 77.601875 56.18359375 76.921875 56.18359375 C76.65375 56.82296875 76.385625 57.46234375 76.109375 58.12109375 C74.921875 60.18359375 74.921875 60.18359375 71.921875 61.18359375 C71.591875 61.84359375 71.261875 62.50359375 70.921875 63.18359375 C70.591875 63.84359375 70.261875 64.50359375 69.921875 65.18359375 C68.436875 65.67859375 68.436875 65.67859375 66.921875 66.18359375 C65.71305404 68.18375841 65.71305404 68.18375841 64.921875 70.18359375 C64.261875 70.18359375 63.601875 70.18359375 62.921875 70.18359375 C62.65375 70.82296875 62.385625 71.46234375 62.109375 72.12109375 C60.921875 74.18359375 60.921875 74.18359375 57.921875 75.18359375 C56.71305404 77.18375841 56.71305404 77.18375841 55.921875 79.18359375 C55.261875 79.18359375 54.601875 79.18359375 53.921875 79.18359375 C52.58771519 81.39580822 52.58771519 81.39580822 51.921875 84.18359375 C53.10773118 86.72089497 53.10773118 86.72089497 55.296875 89.18359375 C56.14542948 90.24407356 56.99300704 91.30533548 57.83984375 92.3671875 C58.32501465 92.9638623 58.81018555 93.56053711 59.31005859 94.17529297 C62.48957393 98.13692477 65.53680398 102.20137658 68.609375 106.24609375 C69.29580078 107.14521484 69.98222656 108.04433594 70.68945312 108.97070312 C75.88107247 115.7783531 80.9777965 122.6511388 86.03588867 129.55834961 C89.43522495 134.19273716 92.89173362 138.77321609 96.421875 143.30859375 C109.08986544 159.67054515 109.08986544 159.67054515 107.921875 171.18359375 C106.14371025 177.88920298 102.72066242 182.42394037 96.921875 186.18359375 C91.33598431 188.91447364 84.77270423 189.23062579 78.78125 187.6015625 C67.98789579 182.94852201 61.44674802 170.58549255 54.78515625 161.4453125 C50.79885785 155.98989256 46.71398732 150.61281046 42.609375 145.24609375 C37.64946849 138.75929212 32.7155358 132.25645513 27.828125 125.71484375 C24.90602337 121.83467601 21.92196635 118.00364575 18.921875 114.18359375 C15.26618367 116.37386925 12.37262137 118.42882316 11.2779541 122.69039917 C11.06576488 125.77800474 11.05747675 128.80419181 11.125 131.8984375 C11.11982361 133.02754044 11.11464722 134.15664337 11.10931396 135.31996155 C11.09743284 138.921232 11.13191963 142.52005583 11.171875 146.12109375 C11.19065561 149.71806305 11.19935355 153.31450275 11.19158936 156.91151428 C11.18892045 159.14645264 11.20253821 161.38148686 11.23468018 163.61619568 C11.25657692 171.60303337 10.10435468 177.64315231 4.5546875 183.82421875 C-0.32594249 187.88751835 -6.04599948 189.57590827 -12.328125 189.12109375 C-18.72317684 188.10188236 -23.02092247 185.5262705 -27.68359375 181.171875 C-33.06242153 173.50290205 -32.51860613 165.10393833 -32.49804688 156.11376953 C-32.5053956 154.59188212 -32.51398416 153.07000028 -32.52371216 151.54812622 C-32.54585231 147.43230755 -32.54886263 143.31668953 -32.54696465 139.20081949 C-32.5468446 135.7566778 -32.55542266 132.31257809 -32.56374216 128.86844814 C-32.5829492 120.73860466 -32.58586989 112.60886385 -32.57910156 104.47900391 C-32.57246243 96.11053467 -32.59532604 87.74250638 -32.63241529 79.37412655 C-32.66316899 72.17214433 -32.6744662 64.97030355 -32.67057848 57.76825702 C-32.66851685 53.47434812 -32.67389907 49.18078251 -32.69847107 44.88693619 C-32.72082988 40.84670366 -32.71878546 36.80718529 -32.69854355 32.7669487 C-32.69514956 31.290809 -32.70015268 29.81462036 -32.71452713 28.33854675 C-32.79425512 19.53901909 -32.21115538 12.55216604 -27.078125 5.18359375 C-24.7265625 2.9296875 -24.7265625 2.9296875 -22.453125 1.62109375 C-21.32003906 0.93853516 -21.32003906 0.93853516 -20.1640625 0.2421875 C-13.78957364 -2.99280591 -6.53831026 -2.73301369 0 0 Z " fill="#FDE711" transform="translate(626.078125,337.81640625)"/>
<path d="M0 0 C1.50534805 -0.01279495 1.50534805 -0.01279495 3.04110718 -0.02584839 C4.67606644 -0.02448883 4.67606644 -0.02448883 6.34405518 -0.02310181 C8.07910812 -0.03317764 8.07910812 -0.03317764 9.84921265 -0.04345703 C13.67468559 -0.06246071 17.49998327 -0.06636264 21.32550049 -0.06851196 C23.3143306 -0.07331411 25.30316075 -0.07811978 27.29198956 -0.08343279 C33.54666239 -0.09970338 39.80127768 -0.1046031 46.05596924 -0.10317993 C52.49132866 -0.1019799 58.92635196 -0.12305671 65.36162639 -0.15466726 C70.89984221 -0.18089421 76.43794871 -0.1915445 81.97622609 -0.19026911 C85.27807831 -0.1897612 88.57956619 -0.19721083 91.88137054 -0.21662521 C95.56973415 -0.23627949 99.25723945 -0.23044791 102.94561768 -0.21841431 C104.02749359 -0.22965332 105.10936951 -0.24089233 106.22402954 -0.25247192 C114.38936457 -0.18497508 120.76874511 1.2688443 126.77862549 7.01742554 C130.58024706 12.8316703 132.7702884 18.21031326 131.90362549 25.26742554 C129.70544026 32.72555399 125.77120404 37.48291798 119.0501709 41.32769775 C116.75084129 42.33431234 115.2702739 42.51025243 112.77764893 42.49447632 C111.57685699 42.49424973 111.57685699 42.49424973 110.35180664 42.49401855 C109.49750061 42.48369598 108.64319458 42.47337341 107.76300049 42.46273804 C106.88081848 42.45990814 105.99863647 42.45707825 105.08972168 42.4541626 C102.2775505 42.44298515 99.46570009 42.41788504 96.65362549 42.39242554 C94.74477593 42.38239259 92.83592137 42.37326729 90.92706299 42.36508179 C86.2524606 42.34305378 81.57809739 42.30854065 76.90362549 42.26742554 C76.90639087 42.93426833 76.90915625 43.60111113 76.91200542 44.28816128 C76.97835663 60.53940491 77.02795042 76.79060545 77.059062 93.04195309 C77.07450854 100.90109571 77.09555555 108.76014772 77.12994385 116.61923218 C77.15991419 123.47192608 77.17921657 130.32455433 77.18589097 137.17731196 C77.18979035 140.80335372 77.1989078 144.42920774 77.22081566 148.05518913 C77.24511596 152.11031172 77.2455906 156.16511116 77.24420166 160.2203064 C77.25498749 161.41289566 77.26577332 162.60548492 77.27688599 163.83421326 C77.24912937 171.33622757 76.84669295 178.50858245 72.07159424 184.60726929 C65.28557176 190.08159511 59.64892038 192.1613228 50.90362549 191.26742554 C44.28164259 190.120114 40.76960607 186.49402931 36.47003174 181.52133179 C33.82992897 177.72248067 33.77907902 174.28668487 33.78337097 169.73721313 C33.78199631 168.61263199 33.78062164 167.48805084 33.77920532 166.32939148 C33.78459824 164.4854908 33.78459824 164.4854908 33.7901001 162.6043396 C33.78995407 161.30653061 33.78980804 160.00872162 33.78965759 158.67158508 C33.78937071 155.11613636 33.79524983 151.56072138 33.80223155 148.00528049 C33.80848323 144.28836297 33.80907033 140.57144467 33.81025696 136.85452271 C33.81336491 129.81749575 33.8215711 122.78048434 33.83160645 115.74346423 C33.8427842 107.73143416 33.84828223 99.71940335 33.85330188 91.70736742 C33.86375415 75.2273777 33.88134324 58.7474036 33.90362549 42.26742554 C32.14888916 42.30670166 32.14888916 42.30670166 30.35870361 42.34677124 C25.990411 42.43773476 21.62220094 42.49484146 17.25323486 42.54208374 C15.36767466 42.56712331 13.48221051 42.60116553 11.59698486 42.6446228 C8.87603985 42.7057434 6.15638522 42.73374047 3.43487549 42.75570679 C2.6012146 42.78151321 1.76755371 42.80731964 0.90863037 42.83390808 C-5.98005903 42.8371591 -10.63295477 40.53707714 -15.62506104 35.82426453 C-20.26119696 30.67839115 -21.59801352 25.32479072 -21.40496826 18.56820679 C-20.52043723 11.97341215 -16.96439941 7.63808195 -11.97528076 3.49398804 C-8.09989619 0.96411121 -4.60073063 0.01775248 0 0 Z " fill="#FEE812" transform="translate(198.09637451171875,335.7325744628906)"/>
<path d="M0 0 C5.07817109 3.32071609 8.08735626 7.65281013 10.04296875 13.3359375 C10.28906441 16.01266956 10.28906441 16.01266956 10.28347778 18.94844055 C10.28622711 20.06598221 10.28897644 21.18352386 10.29180908 22.33493042 C10.28461853 23.55125153 10.27742798 24.76757263 10.27001953 26.02075195 C10.27031158 27.3089534 10.27060364 28.59715485 10.27090454 29.9243927 C10.27147756 33.44883368 10.25973154 36.9731381 10.24575663 40.49754739 C10.23324077 44.18375723 10.23207809 47.86997031 10.22970581 51.55619812 C10.22349355 58.53300731 10.20708619 65.5097537 10.18700683 72.48653525 C10.16463991 80.43086847 10.15365241 88.37520472 10.14361596 96.3195616 C10.12271973 112.65839031 10.0875487 128.99715589 10.04296875 145.3359375 C10.93380409 145.32594475 10.93380409 145.32594475 11.84263611 145.31575012 C18.05624954 145.24908069 24.26976038 145.20400635 30.48364258 145.17114258 C32.79878877 145.15611021 35.11390675 145.1356788 37.42895508 145.10961914 C40.76781199 145.07299154 44.10629045 145.05615509 47.4453125 145.04296875 C48.98335793 145.01974297 48.98335793 145.01974297 50.55247498 144.99604797 C57.71393329 144.99439269 64.61508138 145.60049483 70.3828125 150.203125 C74.81675119 155.77536091 77.58946468 159.79171162 77.3515625 167.22265625 C76.41308501 173.64944511 72.84571849 178.01512137 68.01953125 182.109375 C63.08744682 185.16999656 58.09454563 185.63109123 52.42041016 185.6105957 C51.68135941 185.61570663 50.94230865 185.62081757 50.18086243 185.62608337 C47.75200162 185.63991639 45.32342662 185.63902725 42.89453125 185.63671875 C41.19591162 185.6406094 39.49729296 185.64494483 37.79867554 185.64970398 C34.24303022 185.65715286 30.68748422 185.65688478 27.13183594 185.65161133 C22.59033424 185.64582132 18.04924099 185.66274273 13.50780678 185.685956 C10.0006373 185.7007365 6.49356519 185.70155914 2.98637009 185.69844627 C1.31273973 185.69895741 -0.36089637 185.70415595 -2.03449631 185.71425819 C-4.38182335 185.72668826 -6.72836771 185.71979219 -9.07568359 185.70825195 C-9.75750198 185.71589569 -10.43932037 185.72353943 -11.14179993 185.73141479 C-17.07337246 185.667427 -22.53906043 184.31159659 -27.19921875 180.50390625 C-27.73804688 179.85035156 -28.276875 179.19679688 -28.83203125 178.5234375 C-29.66347656 177.55470703 -29.66347656 177.55470703 -30.51171875 176.56640625 C-33.53919386 171.89427574 -34.20760594 167.34425288 -34.21772766 161.85977173 C-34.22481247 160.57571945 -34.23189728 159.29166718 -34.23919678 157.96870422 C-34.23690327 156.5580746 -34.23439361 155.14744531 -34.23168945 153.73681641 C-34.23603979 152.24153896 -34.24122401 150.74626374 -34.24717712 149.25099182 C-34.26054446 145.19926108 -34.26114827 141.14762375 -34.25861382 137.09587526 C-34.25754247 133.70881827 -34.26243173 130.32178004 -34.26721925 126.93472707 C-34.27830682 118.94117089 -34.2787562 110.94766171 -34.27270508 102.95410156 C-34.26666652 94.71866508 -34.278975 86.48339949 -34.30027515 78.24799216 C-34.31791207 71.16753892 -34.32388917 64.08713997 -34.3206374 57.00666559 C-34.31882758 52.78218396 -34.32143057 48.55782424 -34.33535194 44.33336258 C-34.34795959 40.35897171 -34.3459586 36.38484648 -34.33294106 32.41045952 C-34.33058202 30.95606203 -34.33328577 29.50164567 -34.34156418 28.04726982 C-34.42910876 11.46489454 -34.42910876 11.46489454 -28.64453125 4.5859375 C-19.69135299 -2.90974662 -10.80681366 -5.39384328 0 0 Z " fill="#FCE711" transform="translate(508.95703125,338.6640625)"/>
<path d="M0 0 C2.99226695 2.51378349 3.96193085 5.06071112 5.234375 8.71484375 C5.84345703 10.44287231 5.84345703 10.44287231 6.46484375 12.20581055 C6.88894531 13.43726807 7.31304687 14.66872559 7.75 15.9375 C8.19329018 17.20703883 8.63730579 18.47632458 9.08203125 19.74536133 C9.97362408 22.29298679 10.86054518 24.84216858 11.74414062 27.39257812 C12.85943577 30.59623306 13.99347501 33.79202045 15.140625 36.984375 C15.76043552 38.71874326 16.38022854 40.45311778 17 42.1875 C17.27811523 42.95634521 17.55623047 43.72519043 17.84277344 44.51733398 C19.67397801 49.69831695 20.78894584 54.55025629 22 60 C8.14 60 -5.72 60 -20 60 C-19.3292149 55.97528941 -18.7544325 52.91134282 -17.43359375 49.19140625 C-17.11672607 48.29043213 -16.7998584 47.38945801 -16.47338867 46.46118164 C-16.13154541 45.5046167 -15.78970215 44.54805176 -15.4375 43.5625 C-14.71336437 41.51047922 -13.98941153 39.45839393 -13.265625 37.40625 C-12.89244141 36.35308594 -12.51925781 35.29992187 -12.13476562 34.21484375 C-9.96169089 28.05842204 -7.83649627 21.885273 -5.70288086 15.71508789 C-3.87421134 10.44728633 -1.98131413 5.21238024 0 0 Z " fill="#030300" transform="translate(380,391)"/>
<path d="M0 0 C21.12 0 42.24 0 64 0 C64 0.33 64 0.66 64 1 C63.12859375 1.15855469 62.2571875 1.31710938 61.359375 1.48046875 C41.86805034 5.29857455 25.61504502 13.83050052 13.70703125 30.140625 C6.92313193 40.67921532 2.66784379 51.57829773 1 64 C0.67 64 0.34 64 0 64 C0 42.88 0 21.76 0 0 Z " fill="#E7E7E5" transform="translate(0,0)"/>
<path d="M0 0 C0.33 0 0.66 0 1 0 C1.15855469 0.87140625 1.31710938 1.7428125 1.48046875 2.640625 C5.27504683 22.01184129 13.71378186 38.05410224 29.765625 50.0703125 C32.45560485 51.8456992 35.17123822 53.45630429 38 55 C38.86109375 55.47179687 39.7221875 55.94359375 40.609375 56.4296875 C48.1296621 60.18983105 55.76308346 61.63273855 64 63 C64 63.33 64 63.66 64 64 C42.88 64 21.76 64 0 64 C0 42.88 0 21.76 0 0 Z " fill="#E7E7E5" transform="translate(0,856)"/>
<path d="M0 0 C21.12 0 42.24 0 64 0 C64 20.79 64 41.58 64 63 C63.67 63 63.34 63 63 63 C62.70609375 61.5459375 62.70609375 61.5459375 62.40625 60.0625 C57.94007515 39.45737023 47.93096063 22.75240381 30 11 C20.54815734 5.87733466 10.71047239 2.16418178 0 1 C0 0.67 0 0.34 0 0 Z " fill="#E7E7E5" transform="translate(856,0)"/>
<path d="M0 0 C0.33 0 0.66 0 1 0 C1 20.79 1 41.58 1 63 C-20.12 63 -41.24 63 -63 63 C-63 62.67 -63 62.34 -63 62 C-62.1028125 61.87625 -61.205625 61.7525 -60.28125 61.625 C-46.22130085 59.30104146 -33.63355377 53.65133796 -23 44 C-22.31679688 43.39671875 -21.63359375 42.7934375 -20.9296875 42.171875 C-8.75483533 30.78399046 -2.89104088 16.1005122 0 0 Z " fill="#E7E7E5" transform="translate(919,857)"/>
<path d="M0 0 C6.6 0 13.2 0 20 0 C20 20.79 20 41.58 20 63 C19.67 63 19.34 63 19 63 C18.8040625 62.04222656 18.608125 61.08445313 18.40625 60.09765625 C16.02921946 49.2720114 12.02410139 39.85309205 7 30 C9.64 30 12.28 30 15 30 C15 25.05 15 20.1 15 15 C10.05 15 5.1 15 0 15 C0 10.05 0 5.1 0 0 Z " fill="#FFFFFF" transform="translate(900,0)"/>
<path d="M0 0 C4.95 0 9.9 0 15 0 C15 4.95 15 9.9 15 15 C19.95 15 24.9 15 30 15 C30 12.36 30 9.72 30 7 C30.49701416 7.25692627 30.99402832 7.51385254 31.50610352 7.77856445 C42.22788337 13.25721516 51.99971545 17.43942488 64 19 C64 19.33 64 19.66 64 20 C42.88 20 21.76 20 0 20 C0 13.4 0 6.8 0 0 Z " fill="#FFFFFF" transform="translate(0,900)"/>
<path d="M0 0 C4.95 0 9.9 0 15 0 C15.82554802 14.17190762 15.82554802 14.17190762 10.65625 20.81640625 C4.370584 29.10340459 2.66057039 38.99607596 1 49 C0.67 49 0.34 49 0 49 C0 32.83 0 16.66 0 0 Z " fill="#E7E7E5" transform="translate(0,15)"/>
<path d="M0 0 C1.65 0 3.3 0 5 0 C5 4.95 5 9.9 5 15 C0.05 15 -4.9 15 -10 15 C-10 19.95 -10 24.9 -10 30 C-17.92 30 -25.84 30 -34 30 C-31.09396871 27.82047653 -28.50447814 26.11812952 -25.375 24.375 C-16.20305898 18.91776263 -7.27861038 10.92092501 -1.62109375 1.76953125 C-1.08613281 1.18558594 -0.55117188 0.60164062 0 0 Z " fill="#E7E7E5" transform="translate(910,885)"/>
<path d="M0 0 C4.95 0 9.9 0 15 0 C15 4.95 15 9.9 15 15 C10.05 15 5.1 15 0 15 C0 10.05 0 5.1 0 0 Z " fill="#FFFFFF" transform="translate(900,900)"/>
<path d="M0 0 C4.95 0 9.9 0 15 0 C15 4.95 15 9.9 15 15 C10.05 15 5.1 15 0 15 C0 10.05 0 5.1 0 0 Z " fill="#FFFFFF" transform="translate(0,0)"/>
<path d="M0 0 C0.66386719 0.55945313 1.32773437 1.11890625 2.01171875 1.6953125 C2.68847656 2.24960937 3.36523438 2.80390625 4.0625 3.375 C4.96101432 4.16843747 5.851613 4.97270675 6.69921875 5.8203125 C6.84115212 8.82362268 6.74158253 11.81248384 6.69921875 14.8203125 C1.74921875 14.8203125 -3.20078125 14.8203125 -8.30078125 14.8203125 C-8.30078125 9.8703125 -8.30078125 4.9203125 -8.30078125 -0.1796875 C-2.30078125 -1.1796875 -2.30078125 -1.1796875 0 0 Z " fill="#E7E7E5" transform="translate(23.30078125,900.1796875)"/>
<path d="M0 0 C4.95 0 9.9 0 15 0 C15 4.95 15 9.9 15 15 C7.34492059 15.94216362 7.34492059 15.94216362 3.80859375 13.46484375 C1.75871145 11.31557322 0.24388295 9.70957719 -1 7 C-0.67 4.69 -0.34 2.38 0 0 Z " fill="#E7E7E5" transform="translate(900,15)"/>
<path d="M0 0 C0.33 0 0.66 0 1 0 C1 14.19 1 28.38 1 43 C-0.65 43 -2.3 43 -4 43 C-4 38.05 -4 33.1 -4 28 C-5.65 28 -7.3 28 -9 28 C-8.60167969 27.15179687 -8.20335937 26.30359375 -7.79296875 25.4296875 C-3.98969929 17.00882323 -1.58485276 9.14765892 0 0 Z " fill="#E7E7E5" transform="translate(919,857)"/>
<path d="M0 0 C11.22 0 22.44 0 34 0 C34 0.33 34 0.66 34 1 C33.12859375 1.15855469 32.2571875 1.31710938 31.359375 1.48046875 C20.04155229 3.69748813 10.22147499 7.69269568 0 13 C0 8.71 0 4.42 0 0 Z " fill="#FEFEFE" transform="translate(30,0)"/>
<path d="M0 0 C4.29 0 8.58 0 13 0 C13 10.89 13 21.78 13 33 C12.67 33 12.34 33 12 33 C11.8040625 32.04222656 11.608125 31.08445312 11.40625 30.09765625 C9.02921946 19.2720114 5.02410139 9.85309205 0 0 Z " fill="#E7E7E5" transform="translate(907,30)"/>
<path d="M0 0 C4.29 0 8.58 0 13 0 C12.38511719 1.19753906 11.77023437 2.39507812 11.13671875 3.62890625 C6.09619848 13.69438001 2.45727264 22.79407592 1 34 C0.67 34 0.34 34 0 34 C0 22.78 0 11.56 0 0 Z " fill="#FEFEFE" transform="translate(0,30)"/>
<path d="M0 0 C1.19753906 0.61488281 2.39507812 1.22976563 3.62890625 1.86328125 C13.69438001 6.90380152 22.79407592 10.54272736 34 12 C34 12.33 34 12.66 34 13 C22.78 13 11.56 13 0 13 C0 8.71 0 4.42 0 0 Z " fill="#E7E7E5" transform="translate(30,907)"/>
<path d="M0 0 C1.21171875 0.00322266 2.4234375 0.00644531 3.671875 0.00976562 C4.94289063 0.01814453 6.21390625 0.02652344 7.5234375 0.03515625 C8.8021875 0.03966797 10.0809375 0.04417969 11.3984375 0.04882812 C14.56515042 0.06064422 17.73177106 0.0771181 20.8984375 0.09765625 C20.8984375 1.74765625 20.8984375 3.39765625 20.8984375 5.09765625 C6.3784375 5.09765625 -8.1415625 5.09765625 -23.1015625 5.09765625 C-23.1015625 4.76765625 -23.1015625 4.43765625 -23.1015625 4.09765625 C-22.04195312 3.89269531 -20.98234375 3.68773437 -19.890625 3.4765625 C-18.50257428 3.20457959 -17.11455506 2.93243581 -15.7265625 2.66015625 C-15.02789063 2.52544922 -14.32921875 2.39074219 -13.609375 2.25195312 C-2.13423722 -0.00997307 -2.13423722 -0.00997307 0 0 Z " fill="#E7E7E5" transform="translate(879.1015625,914.90234375)"/>
<path d="M0 0 C0.33 0 0.66 0 1 0 C1.15855469 0.87140625 1.31710938 1.7428125 1.48046875 2.640625 C3.1163468 10.99173724 5.52001125 18.22635606 9 26 C9.33 26.99 9.66 27.98 10 29 C6.7 29 3.4 29 0 29 C0 19.43 0 9.86 0 0 Z " fill="#FDFDFD" transform="translate(0,856)"/>
<path d="M0 0 C9.57 0 19.14 0 29 0 C29 3.3 29 6.6 29 10 C28.07960938 9.60167969 27.15921875 9.20335937 26.2109375 8.79296875 C17.55508896 5.13907019 9.28782977 2.63145238 0 1 C0 0.67 0 0.34 0 0 Z " fill="#FDFDFD" transform="translate(856,0)"/>
<path d="M0 0 C3.96 0 7.92 0 12 0 C8.26704728 4.53287116 4.61513452 8.37382288 0 12 C0 8.04 0 4.08 0 0 Z " fill="#FCFCFC" transform="translate(15,15)"/>
<path d="M0 0 C4.95 0 9.9 0 15 0 C15 1.65 15 3.3 15 5 C10.05 5 5.1 5 0 5 C0 3.35 0 1.7 0 0 Z " fill="#E7E7E5" transform="translate(900,915)"/>
<path d="M0 0 C4.95 0 9.9 0 15 0 C15 1.65 15 3.3 15 5 C10.05 5 5.1 5 0 5 C0 3.35 0 1.7 0 0 Z " fill="#FFFFFF" transform="translate(885,915)"/>
<path d="M0 0 C4.95 0 9.9 0 15 0 C15 1.65 15 3.3 15 5 C10.05 5 5.1 5 0 5 C0 3.35 0 1.7 0 0 Z " fill="#FFFFFF" transform="translate(15,915)"/>
<path d="M0 0 C4.95 0 9.9 0 15 0 C15 1.65 15 3.3 15 5 C10.05 5 5.1 5 0 5 C0 3.35 0 1.7 0 0 Z " fill="#E7E7E5" transform="translate(0,915)"/>
<path d="M0 0 C1.65 0 3.3 0 5 0 C5 4.95 5 9.9 5 15 C3.35 15 1.7 15 0 15 C0 10.05 0 5.1 0 0 Z " fill="#FFFFFF" transform="translate(915,885)"/>
<path d="M0 0 C1.65 0 3.3 0 5 0 C5 4.95 5 9.9 5 15 C3.35 15 1.7 15 0 15 C0 10.05 0 5.1 0 0 Z " fill="#FFFFFF" transform="translate(915,15)"/>
<path d="M0 0 C1.65 0 3.3 0 5 0 C5 4.95 5 9.9 5 15 C3.35 15 1.7 15 0 15 C0 10.05 0 5.1 0 0 Z " fill="#E7E7E5" transform="translate(915,0)"/>
<path d="M0 0 C2.64 0 5.28 0 8 0 C8 4.62 8 9.24 8 14 C5.64662777 10.86217036 4.00315795 8.22270281 2.3125 4.75 C1.65701172 3.41195312 1.65701172 3.41195312 0.98828125 2.046875 C0.66214844 1.37140625 0.33601562 0.6959375 0 0 Z " fill="#FCFCFC" transform="translate(907,30)"/>
<path d="M0 0 C4.62 2.31 9.24 4.62 14 7 C14 7.33 14 7.66 14 8 C9.38 8 4.76 8 0 8 C0 5.36 0 2.72 0 0 Z " fill="#FDFDFD" transform="translate(30,907)"/>
<path d="M0 0 C6.27 0 12.54 0 19 0 C19 0.33 19 0.66 19 1 C16.77092605 1.47959778 14.54173703 1.9586608 12.3125 2.4375 C11.07113281 2.70433594 9.82976563 2.97117188 8.55078125 3.24609375 C5.70387985 3.85055136 2.85544374 4.43764684 0 5 C0 3.35 0 1.7 0 0 Z " fill="#E7E7E5" transform="translate(45,0)"/>
<path d="M0 0 C0.78503906 0.20496094 1.57007813 0.40992188 2.37890625 0.62109375 C7.91017745 2.03954244 13.32370402 3.35496637 19 4 C19 4.33 19 4.66 19 5 C12.73 5 6.46 5 0 5 C0 3.35 0 1.7 0 0 Z " fill="#FBFBFA" transform="translate(45,915)"/>
<path d="M0 0 C1.65 0 3.3 0 5 0 C5 5.94 5 11.88 5 18 C4.67 18 4.34 18 4 18 C2.68 12.06 1.36 6.12 0 0 Z " fill="#FBFBFA" transform="translate(915,45)"/>
<path d="M0 0 C1.65 0 3.3 0 5 0 C4.79503906 0.78503906 4.59007812 1.57007813 4.37890625 2.37890625 C2.96045756 7.91017745 1.64503363 13.32370402 1 19 C0.67 19 0.34 19 0 19 C0 12.73 0 6.46 0 0 Z " fill="#E7E7E5" transform="translate(0,45)"/>
<path d="M0 0 C3 1 3 1 3.984375 2.75 C5.88455111 8.33419101 6.62339599 13.22656913 5 19 C4.34 19.66 3.68 20.32 3 21 C3.03480469 20.13117188 3.06960938 19.26234375 3.10546875 18.3671875 C3.3806733 9.76944347 3.3806733 9.76944347 0 2 C0 1.34 0 0.68 0 0 Z " fill="#DBD310" transform="translate(725,348)"/>
<path d="M0 0 C-0.33 0.99 -0.66 1.98 -1 3 C-1.66 3 -2.32 3 -3 3 C-3.66 4.32 -4.32 5.64 -5 7 C-5.66 7 -6.32 7 -7 7 C-7.66 8.32 -8.32 9.64 -9 11 C-9.66 10.34 -10.32 9.68 -11 9 C-9.54782324 7.49403892 -8.08807139 5.99537896 -6.625 4.5 C-5.40683594 3.24703125 -5.40683594 3.24703125 -4.1640625 1.96875 C-2 0 -2 0 0 0 Z " fill="#E0DA11" transform="translate(687,410)"/>
<path d="M0 0 C2.04119788 1.61594832 4.04072937 3.2856382 6 5 C6 5.66 6 6.32 6 7 C4.02 7 2.04 7 0 7 C0 4.69 0 2.38 0 0 Z " fill="#FBFBFB" transform="translate(15,893)"/>
<path d="M0 0 C2.31 0 4.62 0 7 0 C7 1.98 7 3.96 7 6 C3.63279613 4.60667426 2.0140476 3.0210714 0 0 Z " fill="#FBFBFB" transform="translate(893,15)"/>
<path d="M0 0 C0 0.99 0 1.98 0 3 C-4.62 3 -9.24 3 -14 3 C-14 2.67 -14 2.34 -14 2 C-12.22978678 1.663389 -10.45880326 1.33082707 -8.6875 1 C-7.70136719 0.814375 -6.71523438 0.62875 -5.69921875 0.4375 C-3 0 -3 0 0 0 Z " fill="#F9F9F8" transform="translate(870,917)"/>
<path d="M0 0 C1.65 0 3.3 0 5 0 C5 1.65 5 3.3 5 5 C3.35 5 1.7 5 0 5 C0 3.35 0 1.7 0 0 Z " fill="#FFFFFF" transform="translate(915,915)"/>
<path d="M0 0 C0 1.65 0 3.3 0 5 C-2.97 5 -5.94 5 -9 5 C-2.63636364 0 -2.63636364 0 0 0 Z " fill="#FCFCFB" transform="translate(885,910)"/>
<path d="M0 0 C0.33 0 0.66 0 1 0 C1 2.97 1 5.94 1 9 C-0.65 9 -2.3 9 -4 9 C-2.68 6.03 -1.36 3.06 0 0 Z " fill="#FCFCFB" transform="translate(914,876)"/>
<path d="M0 0 C0.33 0 0.66 0 1 0 C1 4.29 1 8.58 1 13 C0.01 13.33 -0.98 13.66 -2 14 C-1.03644647 4.58997722 -1.03644647 4.58997722 0 0 Z " fill="#FAFAF9" transform="translate(919,857)"/>
<path d="M0 0 C0.33 0 0.66 0 1 0 C1.66 4.62 2.32 9.24 3 14 C2.01 14 1.02 14 0 14 C0 9.38 0 4.76 0 0 Z " fill="#E7E7E5" transform="translate(0,856)"/>
<path d="M0 0 C-0.33 0.99 -0.66 1.98 -1 3 C-1.66 3 -2.32 3 -3 3 C-3.66 4.32 -4.32 5.64 -5 7 C-5.66 7 -6.32 7 -7 7 C-7.33 7.99 -7.66 8.98 -8 10 C-8.66 9.34 -9.32 8.68 -10 8 C-8.71451591 6.66070495 -7.42141845 5.32871357 -6.125 4 C-5.04605469 2.88625 -5.04605469 2.88625 -3.9453125 1.75 C-2 0 -2 0 0 0 Z " fill="#E1DB11" transform="translate(719,378)"/>
<path d="M0 0 C4.62 0 9.24 0 14 0 C14 0.99 14 1.98 14 3 C9.38 2.34 4.76 1.68 0 1 C0 0.67 0 0.34 0 0 Z " fill="#E7E7E5" transform="translate(856,0)"/>
<path d="M0 0 C3.7952131 1.49097658 5.61042731 3.75700849 8 7 C7.01 7 6.02 7 5 7 C5 6.34 5 5.68 5 5 C4.01 4.67 3.02 4.34 2 4 C2 3.34 2 2.68 2 2 C1.34 2 0.68 2 0 2 C0 1.34 0 0.68 0 0 Z " fill="#D9D110" transform="translate(166,607)"/>
<path d="M0 0 C3.7952131 1.49097658 5.61042731 3.75700849 8 7 C7.01 7 6.02 7 5 7 C5 6.34 5 5.68 5 5 C4.34 5 3.68 5 3 5 C3 4.34 3 3.68 3 3 C2.01 2.67 1.02 2.34 0 2 C0 1.34 0 0.68 0 0 Z " fill="#D5CE10" transform="translate(158,599)"/>
<path d="M0 0 C3 1 3 1 4.1875 2.875 C5 5 5 5 5 8 C4.34 8 3.68 8 3 8 C0 2.25 0 2.25 0 0 Z " fill="#E6DF11" transform="translate(725,348)"/>
<path d="M0 0 C0.66 0.33 1.32 0.66 2 1 C0.35 2.98 -1.3 4.96 -3 7 C-3.66 6.34 -4.32 5.68 -5 5 C-3.35 3.35 -1.7 1.7 0 0 Z " fill="#F0E211" transform="translate(186,339)"/>
</svg>
